<svg height="512" viewBox="0 0 64 64" width="512" xmlns="http://www.w3.org/2000/svg"><g id="Filled_outline" data-name="Filled outline"><path d="m43 13h-6-12v20h18z" fill="#ffd782"/><path d="m45 57h-22v-20h21 1z" fill="#e33e5c"/><path d="m21 37h2a0 0 0 0 1 0 0v10a0 0 0 0 1 0 0h-6a0 0 0 0 1 0 0v-6a4 4 0 0 1 4-4z" fill="#b11e48"/><path d="m25 26a4 4 0 0 1 0-8z" fill="#f9bb4b"/><path d="m43 18a4 4 0 0 1 0 8z" fill="#f9bb4b"/><path d="m43 13s4.5-3.5-2-10c0 0 0 4-9 4-6 0-7 2-7 6z" fill="#394d5c"/><path d="m31 24h6a0 0 0 0 1 0 0v2a3 3 0 0 1 -3 3 3 3 0 0 1 -3-3v-2a0 0 0 0 1 0 0z" fill="#e33e5c"/><path d="m3 57h58v4h-58z" fill="#195c85"/><path d="m3 47h20v10h-20z" fill="#143441"/><path d="m56 51a5 5 0 0 1 5 5v1a0 0 0 0 1 0 0h-10a0 0 0 0 1 0 0v-1a5 5 0 0 1 5-5z" fill="#f9bb4b"/><path d="m52 29v8h-7v6h9a4 4 0 0 0 4-4v-10z" fill="#b11e48"/><path d="m58 29v-9a2 2 0 0 0 -2-2 2 2 0 0 0 -2 2v2h-2a2.006 2.006 0 0 0 -2 2v3a2.006 2.006 0 0 0 2 2z" fill="#ffd782"/><path d="m32 42-1 9 3 6 3-6-1-9z" fill="#b11e48"/><path d="m36 42h-4l-2-5h8z" fill="#9b123f"/><path d="m28 16h2v2h-2z"/><path d="m38 16h2v2h-2z"/><path d="m33 17h2v4h-2z"/><path d="m25 34h18a1 1 0 0 0 1-1v-6.1a5 5 0 0 0 0-9.8v-3.68a5.578 5.578 0 0 0 1.506-3.492c.149-2.4-1.129-4.966-3.8-7.636a.993.993 0 0 0 -1.06-.211 1.026 1.026 0 0 0 -.646.889c0 .03-.288 3.03-8 3.03-6.691 0-8 2.566-8 7v4.1a5 5 0 0 0 0 9.8v6.1a1 1 0 0 0 1 1zm19-14.829a3 3 0 0 1 0 5.658zm-12-11.171c5.948 0 8.358-1.735 9.335-3.163 1.5 1.782 2.252 3.467 2.177 4.927a3.6 3.6 0 0 1 -.912 2.236h-1.6a4.806 4.806 0 0 0 1-3h-2a3.366 3.366 0 0 1 -2.187 3h-11.791c.144-2.771 1.098-4 5.978-4zm-6 6h16v18h-16zm-4 8a3.006 3.006 0 0 1 2-2.829v5.658a3.006 3.006 0 0 1 -2-2.829z"/><path d="m37 23h-6a1 1 0 0 0 -1 1v2a4 4 0 0 0 8 0v-2a1 1 0 0 0 -1-1zm-1 3a2 2 0 0 1 -4 0v-1h4z"/><path d="m10 51h6v2h-6z"/><path d="m57 50.09v-2.09h-2v2.09a6.006 6.006 0 0 0 -5 5.91h-4v-12h8a5.006 5.006 0 0 0 5-5v-19a3 3 0 0 0 -6 0v1h-1a3 3 0 0 0 -3 3v3a3 3 0 0 0 2 2.816v6.184h-30a5.006 5.006 0 0 0 -5 5v5h-13a1 1 0 0 0 -1 1v14a1 1 0 0 0 1 1h58a1 1 0 0 0 1-1v-5a6.006 6.006 0 0 0 -5-5.91zm-6-26.09a1 1 0 0 1 1-1h2a1 1 0 0 0 1-1v-2a1 1 0 0 1 2 0v8h-5a1 1 0 0 1 -1-1zm-5 14h6a1 1 0 0 0 1-1v-7h4v9a3 3 0 0 1 -3 3h-8zm-7.323 0h5.323v18h-8.382l2.282-4.553a1.012 1.012 0 0 0 .1-.557l-.973-8.751zm-4.677 16.764-1.974-3.947.874-7.817h2.2l.869 7.817zm2.523-16.764-1.2 3h-2.646l-1.2-3zm-12.523 0h5.323l1.656 4.139-.973 8.751a1.012 1.012 0 0 0 .1.557l2.276 4.553h-8.382zm-6 3a3 3 0 0 1 3-3h1v8h-4zm-14 7h18v8h-18zm56 12h-56v-2h56zm-8-4a4 4 0 0 1 8 0z"/><path d="m26 43h3v2h-3z"/></g></svg>