<svg height="512" viewBox="0 0 512 512" width="512" xmlns="http://www.w3.org/2000/svg"><g id="filled_outline" data-name="filled outline"><path d="m468.145 392.232a122.919 122.919 0 0 0 -54.968-47.467l-93.177-40.765h-128l-93.177 40.765a122.919 122.919 0 0 0 -54.968 47.467 130.625 130.625 0 0 0 -19.855 69.231v26.537h464v-26.537a130.625 130.625 0 0 0 -19.855-69.231z" fill="#0296e5"/><path d="m80 355.05v132.95h-56v-26.54a130.527 130.527 0 0 1 19.86-69.23 122.689 122.689 0 0 1 36.14-37.18z" fill="#0bafea"/><path d="m488 461.46v26.54h-56v-132.95a122.689 122.689 0 0 1 36.14 37.18 130.587 130.587 0 0 1 19.86 69.23z" fill="#0bafea"/><path d="m296 488 24-184h-128l24 184z" fill="#cbcbcb"/><path d="m216.636 232-.636 48 40 24 40-24-.636-48z" fill="#f6bb92"/><path d="m192 184-8.1-2.7a23.246 23.246 0 0 1 -15.9-22.054 23.245 23.245 0 0 1 23.246-23.246h.754z" fill="#f6bb92"/><path d="m320 184 8.105-2.7a23.246 23.246 0 0 0 15.895-22.054 23.245 23.245 0 0 0 -23.246-23.246h-.754z" fill="#f6bb92"/><path d="m240 360h32v128h-32z" fill="#0a6fa2"/><path d="m295.364 245.563a51.241 51.241 0 0 1 -39.364 18.437 51.241 51.241 0 0 1 -39.364-18.437 106.286 106.286 0 0 1 -24.636-68.045v-49.518h128v49.518a106.286 106.286 0 0 1 -24.636 68.045z" fill="#fdc9a6"/><path d="m320 40-64-16-64 16-32 32 32 56h128l32-56z" fill="#0a6fa2"/><g fill="#834b10"><path d="m264 200h-16a8 8 0 0 1 -7.891-9.315l8-48a8 8 0 0 1 15.782 2.63l-6.447 38.685h6.556a8 8 0 0 1 0 16z"/><circle cx="222" cy="160" r="10"/><circle cx="286" cy="160" r="10"/><path d="m256 360a128 128 0 0 0 -128 128h32a96 96 0 0 1 192 0h32a128 128 0 0 0 -128-128z"/></g><path d="m80 355.05v132.95h-56v-26.54a130.527 130.527 0 0 1 19.86-69.23 122.689 122.689 0 0 1 36.14-37.18z" fill="#0284c9"/><path d="m488 461.46v26.54h-56v-132.95a122.689 122.689 0 0 1 36.14 37.18 130.587 130.587 0 0 1 19.86 69.23z" fill="#0284c9"/><path d="m122.117 448 17.647-17.647a32.438 32.438 0 0 0 8.532-15.07 18.738 18.738 0 0 0 -18.179-23.283l-24 24-12.617 8.409a39.884 39.884 0 0 0 -15.71 20.573 39.876 39.876 0 0 0 -.856 22.285l5.183 20.733h80l5.47-16.411a8 8 0 0 0 -5.059-10.119z" fill="#eaeae8"/><path d="m208 272 48 32-24 40-40-40z" fill="#eaeae8"/><path d="m304 272-48 32 24 40 40-40z" fill="#eaeae8"/><path d="m232 344 8 16h32l8-16-24-40z" fill="#0a6fa2"/><path d="m389.883 448-17.647-17.647a32.438 32.438 0 0 1 -8.532-15.07 18.738 18.738 0 0 1 18.179-23.283l24 24 12.614 8.409a39.884 39.884 0 0 1 15.713 20.573 39.876 39.876 0 0 1 .856 22.285l-5.183 20.733h-80l-5.47-16.411a8 8 0 0 1 5.059-10.119z" fill="#eaeae8"/><path d="m311.3 135.411a192.428 192.428 0 0 1 -110.59 0 34.666 34.666 0 0 1 -24.71-33.203v-6.208l53.232-5.323a269.029 269.029 0 0 1 53.536 0l53.232 5.323v6.208a34.666 34.666 0 0 1 -24.7 33.203z" fill="#0296e5"/><circle cx="256" cy="80" fill="#fbb540" r="24"/><path d="m256 226.647a61.441 61.441 0 0 1 -19.165-3.047 8 8 0 0 1 5-15.2 45.671 45.671 0 0 0 28.335 0 8 8 0 0 1 5 15.2 61.492 61.492 0 0 1 -19.17 3.047z" fill="#834b10"/><circle cx="222" cy="160" r="10"/><circle cx="286" cy="160" r="10"/><path d="m474.929 387.992a130.39 130.39 0 0 0 -58.545-50.556l-90.524-39.6-14.705-29.41a7.945 7.945 0 0 0 -7.391-4.409l-.339-15.732a114.523 114.523 0 0 0 23.86-58.285l3.35-1.116a31.24 31.24 0 0 0 2.611-58.274 42.5 42.5 0 0 0 10.754-28.402v-.086l.013-.02 14.933-26.133a8 8 0 0 0 -1.289-9.626l-32-32a8 8 0 0 0 -3.717-2.1l-64-16a7.985 7.985 0 0 0 -3.88 0l-64 16a8 8 0 0 0 -3.717 2.1l-32 32a8 8 0 0 0 -1.289 9.626l14.946 26.156v.083a42.5 42.5 0 0 0 10.754 28.406 31.24 31.24 0 0 0 2.611 58.274l3.35 1.116a114.519 114.519 0 0 0 23.858 58.274l-.352 15.734a7.947 7.947 0 0 0 -7.376 4.41l-14.705 29.41-90.524 39.6a130.391 130.391 0 0 0 -58.545 50.556 138.477 138.477 0 0 0 -21.071 73.474v26.538a8 8 0 0 0 8 8h464a8 8 0 0 0 8-8v-26.538a138.477 138.477 0 0 0 -21.071-73.47zm-50.9-28.545c-.013.183-.028.366-.028.553v58.5c-.354-.25-.7-.5-1.065-.743l-11.956-7.97-23.439-23.44a8 8 0 0 0 -5.658-2.347 26.571 26.571 0 0 0 -21.075 10.283 26.958 26.958 0 0 0 -2.611 4.044 135.95 135.95 0 0 0 -38.453-30.511l6.811-52.216 83.416 36.494a115.716 115.716 0 0 1 14.057 7.353zm-144.029 120.553v-76.625a88.153 88.153 0 0 1 18.008 7.378l-9.032 69.247zm32.82-59.1a87.745 87.745 0 0 1 26.419 38.52 16.253 16.253 0 0 0 -1.548 2.485 15.9 15.9 0 0 0 -.868 12.215l1.96 5.881h-33.672zm40.663 30.8a104.424 104.424 0 0 0 -97.483-67.7 103.092 103.092 0 0 0 -62.677 21 104.978 104.978 0 0 0 -34.787 46.7l-15.2-5.066a121.209 121.209 0 0 1 40.868-54.806 120.036 120.036 0 0 1 144.26.509 121.13 121.13 0 0 1 40.189 54.3zm-130.459 28.3-9.044-69.335a86.672 86.672 0 0 1 18.02-7.365v76.7zm-48.715-18.1a16.191 16.191 0 0 0 -1.558-2.5 88.843 88.843 0 0 1 26.42-38.573l7.718 59.173h-33.672l1.96-5.881a15.9 15.9 0 0 0 -.868-12.219zm49.944-199.136a59.2 59.2 0 0 0 63.481.008l.223 10.305-31.957 21.308-31.977-21.318zm59.305 92 3.017-6.032 22.45-22.451-4.511 34.584a133.941 133.941 0 0 0 -20.956-6.094zm-38.614-2.764-3.824-7.65 14.88-24.8 14.88 24.8-3.824 7.65zm-19.519-3.261 3.021 6.041a134.079 134.079 0 0 0 -20.958 6.107l-4.513-34.6zm84.841-46.319-28.678 28.68-14.8-24.673 34.112-22.744zm-107.266-174.671a26.491 26.491 0 0 1 -18.984-24.511l45.994-4.6a31.953 31.953 0 0 0 51.974 0l45.994 4.6a26.491 26.491 0 0 1 -18.978 24.511 183.918 183.918 0 0 1 -106 0zm53-31.749a16 16 0 1 1 16-16 16.019 16.019 0 0 1 -16 16zm72 76.654v-26.819a15.238 15.238 0 0 1 0 26.819zm-131.91-125.43 59.91-14.978 59.91 14.978 26.112 26.112-8.23 14.4-45.948-4.594c.1-1.035.156-2.084.156-3.145a32 32 0 0 0 -64 0c0 1.061.055 2.109.156 3.144l-45.948 4.595-8.23-14.4zm-20.09 112.022a15.26 15.26 0 0 1 8-13.411v26.819a15.221 15.221 0 0 1 -8-13.408zm24-15.709a200.465 200.465 0 0 0 46.669 7.788l-6.56 39.36a8 8 0 0 0 7.891 9.315h16a8 8 0 0 0 0-16h-6.556l5.428-32.57a200.38 200.38 0 0 0 49.128-7.894v33.982a98.472 98.472 0 0 1 -22.782 62.923 43.24 43.24 0 0 1 -66.437 0 98.476 98.476 0 0 1 -22.781-62.923zm11.1 140.146 34.112 22.742-14.8 24.673-28.678-28.678zm-109.071 68.411 83.416-36.494 6.813 52.232a135.01 135.01 0 0 0 -38.446 30.512 27.014 27.014 0 0 0 -2.62-4.061 26.571 26.571 0 0 0 -21.075-10.283 8 8 0 0 0 -5.657 2.343l-23.439 23.44-11.956 7.97c-.361.24-.712.493-1.065.743v-58.496c0-.187-.015-.369-.028-.553a115.716 115.716 0 0 1 14.057-7.353zm-70.029 109.368a122.484 122.484 0 0 1 18.64-64.99 114.787 114.787 0 0 1 21.36-25.219v66.637a47.489 47.489 0 0 0 -2.827 31.318l2.698 10.792h-39.871zm56.363 18.538-3.663-14.673a31.885 31.885 0 0 1 13.24-34.262l12.615-8.409a8.052 8.052 0 0 0 1.219-1l21.259-21.256a10.748 10.748 0 0 1 7.5 12.945 24.444 24.444 0 0 1 -6.428 11.353l-17.645 17.645a8 8 0 0 0 3.127 13.246l40.413 13.471-3.649 10.94zm159.637 0v-79.633c2.645-.236 5.312-.367 8-.367s5.357.135 8 .378v79.622zm107.649 0-3.649-10.94 40.411-13.471a8 8 0 0 0 3.127-13.246l-17.645-17.643a24.444 24.444 0 0 1 -6.428-11.353 10.748 10.748 0 0 1 7.5-12.945l21.259 21.259a8.052 8.052 0 0 0 1.219 1l12.614 8.409a31.884 31.884 0 0 1 13.246 34.262l-3.666 14.668zm124.351 0h-39.871l2.7-10.792a47.537 47.537 0 0 0 -3.008-31.715 5.6 5.6 0 0 0 .179-1.493v-64.748a114.847 114.847 0 0 1 21.361 25.22 122.492 122.492 0 0 1 18.639 64.99z"/><path d="m236.835 223.6a61.8 61.8 0 0 0 38.329 0 8 8 0 0 0 -5-15.2 45.671 45.671 0 0 1 -28.335 0 8 8 0 0 0 -5 15.2z"/></g></svg>