<svg id="Layer_1" data-name="Layer 1" xmlns="http://www.w3.org/2000/svg" viewBox="0 0 512 512"><title>filled-globe-handdrawn</title><path d="M127.61,248.24a282.69,282.69,0,0,1,17.22-89.59H247.38v89.59Zm-2.3-89.59H20.12A253.75,253.75,0,0,0,1.82,248.24H109.24a301.75,301.75,0,0,1,16.06-89.59Zm27-18.35h95.11V15.11c-22.33,18.06-67,62-95.11,125.19Zm27.67-80.85A357.88,357.88,0,0,1,239.61,0C146.95,5.88,67.77,61.4,28.38,140.3H132.21a336.18,336.18,0,0,1,47.73-80.85ZM384.39,248.24a281.71,281.71,0,0,0-17.22-89.59H264.63v89.59Zm2.31-89.59a301.65,301.65,0,0,1,16.08,89.59H510.18a253.89,253.89,0,0,0-18.3-89.59Zm-27-18.35c-28.07-63.15-72.8-107.13-95.12-125.19V140.3ZM332.06,59.45a336.47,336.47,0,0,1,47.75,80.85h103.8C444.24,61.4,365.07,5.88,272.41,0a357,357,0,0,1,59.65,59.45ZM127.61,263.75a282.67,282.67,0,0,0,17.22,89.6H247.38v-89.6Zm-2.3,89.6a301.7,301.7,0,0,1-16.06-89.6H1.82a253.82,253.82,0,0,0,18.31,89.6Zm27,18.35c28.07,63.15,72.78,107.15,95.11,125.18V371.69Zm27.67,80.87a336.71,336.71,0,0,1-47.73-80.87H28.38C67.77,450.58,146.95,506.13,239.61,512a358.07,358.07,0,0,1-59.67-59.44ZM384.39,263.75H264.63v89.6H367.18a281.69,281.69,0,0,0,17.22-89.6Zm2.31,89.6H491.89a254,254,0,0,0,18.3-89.6H402.77a301.61,301.61,0,0,1-16.08,89.6Zm-27,18.35H264.63V496.88c22.32-18,67.05-62,95.12-125.18Zm-27.69,80.87A357.24,357.24,0,0,1,272.41,512c92.66-5.87,171.84-61.42,211.2-140.31H379.81a337,337,0,0,1-47.75,80.87Z" fill="none" stroke="#001e53"/><path d="M379.71,372a4.14,4.14,0,0,1,.47-.27L378.09,375c.23.4,5.78-3.34,5.78-3.34.21.36-6.52,5-6.06,5.76.19.33,10.61-6.18,10.63-6.14s-13.53,9.84-13.32,10.21c.77,1.33,16.91-10,17-9.83,1.1,1.9-18.29,12.17-18.07,12.55,0,0,21.15-14,21.93-12.66,1.33,2.31-23.22,15.23-23,15.64,1.66,2.88,26.58-15.71,26.74-15.44,0,0-29.56,15.79-28.18,18.18,0,0,31.42-19,31.78-18.35,1.64,2.85-36,18.08-33.81,21.82,1.89,3.27,37.24-21.5,37.24-21.5,1.55,2.68-39.28,25.39-39.28,25.39,2.27,3.93,44.23-25.54,44.23-25.54,1.87,3.25-45.94,26.2-45,27.75.72,1.24,47.76-27.57,47.76-27.57,2.71,4.7-49.2,30.24-49.2,30.24,2.59,4.49,52.11-30.09,52.11-30.09s-56.14,28.7-53.7,32.92c1.86,3.22,55.6-38.81,58.51-33.78,3.56,6.17-60.36,35.73-59.7,36.88,4.15,7.19,59-41.74,62.34-36,1.43,2.48-64.14,38.76-64.14,38.76,2,3.52,65-45.25,68.32-39.45,2.83,4.9-75.28,36.18-71.12,43.39,3.94,6.82,74.15-42.81,74.15-42.81,5,8.58-75.66,45.73-75.66,45.73s74.48-55.72,80-46.18c.23.39-82.74,50.33-82.74,50.33,4.71,8.16,86.72-50.07,86.72-50.07,4.24,7.34-95.56,44.46-89.72,54.56,3.78,6.55,92.42-59.48,95.07-54.89,4.12,7.13-96.5,58.18-96.5,58.18.92,1.59,98.38-63.4,101.24-58.45,3.84,6.64-105.72,59-104,62,3.41,5.9,101.58-70.37,106.65-61.58C457.79,379.9,341.34,435,343,437.82c5.82,10.07,114.26-66,114.26-66s-117.91,67.44-116.87,69.24c0,0,119.41-71.32,120.44-69.54,3.82,6.61-123.39,74.12-123.39,74.12,2.09,3.62,123.11-81.31,127.54-73.63,1.46,2.54-134.55,70.2-130.45,77.31,2,3.53,135-78,135-78L330.34,454.48c4.43,7.68,137.12-94.64,143.82-83,3.48,6-152.93,76.34-146.84,86.88,4.15,7.18,148.6-87.88,149.5-86.32,5.31,9.2-153.11,90.39-153.11,90.39,7.49,13,147.36-107.21,156.94-90.61,9.12,15.8-163.7,88.47-160,94.81,8.61,14.92,161.6-93.3,161.6-93.3,10.53,18.23-174.61,84.92-166.57,98.85,0,0,153.77-114.47,164.89-95.2,2.84,4.92-172.72,98.35-171,101.4,6.43,11.14,168.4-100.91,170-98.14,0,0-187.75,84.07-176,104.41C306.88,490.34,476.1,385,476.1,385c1.91,3.3-187.59,93.21-179.88,106.57,7.26,12.58,177.41-102.43,177.41-102.43,12.21,21.14-184.25,108.49-184.25,108.49.88,1.53,183-105.66,183-105.66S281,504.46,281.19,504.83L469.06,396.36c1.8,3.11-203.85,100.79-195.49,115.27,4,6.85,181.55-131.48,193.1-111.49.78,1.35-194.32,102.14-189.08,111.22,0,0,183.92-114.7,187.61-108.32,0,0-184.66,105.47-183.23,107.94,0,0,175.82-111.26,180-103.95,4.62,8-184.53,88.16-175.73,103.41s164.43-115.31,173.26-100c6,10.31-168.09,99.41-168.09,99.41s156.07-110.42,164.87-95.19c11,19.08-166.48,86.41-161.48,95.08C297.75,514.78,453.69,418,453.69,418c2.4,4.17-160.91,76-152.69,90.24,5.44,9.42,143.61-97.69,150-86.61,8.32,14.41-149.32,76.89-144.27,85.63,5.57,9.65,140.06-80.87,140.06-80.87,3.42,5.92-134.6,78.75-133.9,80l128.12-74c1.29,2.24-128.46,57.9-120.49,71.71,0,0,111.38-75.33,116.15-67.06,1.64,2.84-110.88,64.52-110.24,65.63,0,0,102.92-64.39,105.07-60.66,6,10.47-99.29,51.73-95.78,57.8,3.68,6.38,85.53-58,89.29-51.55,0,0-79.33,45.64-78.26,47.49,3.21,5.56,66.09-45.27,69.17-39.94,0,0-56,32.67-55.13,34.12,1,1.7,42.14-24.33,42.14-24.33" fill="none" stroke="#00286f" stroke-linecap="round" stroke-linejoin="round" stroke-width="0.7"/><path d="M264.66,371.93a2,2,0,0,1,.35-.2c0,.07-.19,1.93-.17,2a36.21,36.21,0,0,1,3.63-2.09c.1.17-3.73,4.32-3.73,4.32.24.41,7.07-5.21,7.56-4.37,0,0-8.59,6.14-8.11,7,.15.25,11.19-7.63,11.69-6.75.64,1.11-11.62,8.62-11.38,9,1.08,1.87,14.55-10.3,15.37-8.87s-15.33,10.12-15.11,10.5c1.12,1.94,18.24-10.53,18.24-10.53.52.89-19.66,11.31-18.4,13.5,1.52,2.63,23.21-16,24.33-14,1.69,2.93-25,16.25-24.91,16.42s27.5-15.88,27.5-15.88c.49.85-27.34,18.25-27.34,18.25,1.89,3.27,31.39-20.42,32.39-18.7,1.83,3.16-33.43,18.06-31.89,20.74.51.88,36.06-20.82,36.06-20.82.71,1.22-37.53,19-35.58,22.43.35.6,35.12-26,37.61-21.72.15.25-38.69,22.3-37.82,23.8,0,0,41.09-24.18,41.29-23.84,0,.08-42.24,23.81-41.14,25.71,2.78,4.81,45.28-26.14,45.28-26.14L264.86,400c.56,1,46-34.13,49.26-28.44,2.6,4.5-52.52,25.86-49.58,31,.37.63,53.27-30.75,53.27-30.75,3.18,5.52-53.34,33.34-53.29,33.44,2,3.54,56.65-36,58.09-33.54,1,1.71-59.35,33.86-58.28,35.71.22.38,60.41-38.59,62-35.8,0,0-65.9,31.78-62.16,38.26,2.23,3.86,65.48-39.66,66.28-38.27L264.84,412.2c2.81,4.86,66.83-45,69.61-40.19L264,414.71c4.31,7.47,73.85-42.64,73.85-42.64,2.27,3.93-72.44,44.62-72.44,44.62,4.94,8.55,73.21-52.32,77.56-44.78.58,1-78.15,46.82-77.82,47.39s82.32-47.87,82.47-47.61c1.58,2.74-82.22,49.31-82.22,49.31,1.5,2.6,79.81-59.12,85.46-49.34,4.25,7.36-85.65,51.77-85.65,51.77S349.8,362.66,355,371.59c3,5.11-93.19,50-90.63,54.45,5.77,10,93.86-54.32,93.92-54.22s-94.71,55.46-94,56.71c4.74,8.21,90.23-60,93.65-54.07,5.5,9.53-93,56.57-93,56.57,4.54,7.86,87.62-61.76,92.45-53.38,4.46,7.73-97.63,47.81-93.07,55.71,3.75,6.5,89.54-56.72,91.71-53,0,0-94.74,48.58-91.28,54.58,4.68,8.11,89.11-51.45,89.11-51.45,3,5.18-94.47,43.89-89,53.31,4.73,8.19,87.24-50.72,87.39-50.45,2,3.54-88.81,50.45-87.51,52.71.7,1.22,83.76-54.89,86.59-50,5.89,10.21-86,51.6-86,51.6s84.37-49.84,84.85-49c0,0-88.27,46.81-85.25,52,3.71,6.42,79.38-54.5,83.14-48,.61,1.06-83.38,50.56-83.38,50.56,3.92,6.79,81.2-46.88,81.2-46.88,4.08,7.07-81.25,48.88-80.91,49.48,1.93,3.34,73.79-54,78.73-45.46,3.56,6.17-79.8,47.43-79.62,47.73,3,5.16,77.94-45.29,78.07-45.07,0,0-81.49,38.66-76.68,47,2.89,5,74.33-42.91,74.33-42.91,2.24,3.88-76.78,43.94-75.59,46,0,0,72-43.42,72.83-42.05,3.13,5.43-76.85,37.07-72.49,44.62l68.73-39.68c2.66,4.61-69.45,40.22-68.28,42.25,0,0,64.31-39.79,65.46-37.8,3,5.18-66.78,37.26-65.15,40.09,0,0,59-41.9,62.38-36,1.54,2.66-66.77,32-63,38.64,1.72,3,60-36.64,60.86-35.14,1.41,2.45-64,31.3-60.54,37.26,3.35,5.8,55.2-36.22,57.09-33C325.86,442,264.89,471,264.89,471c3.34,5.78,51.34-36.55,54.33-31.37,1.43,2.48-55.74,33.07-55.17,34.07,3.44,6,49.66-35.67,52.69-30.42,0,0-54.92,25.66-51.36,31.83,0,0,47.44-27.73,47.59-27.48,0,0-48.45,29.23-47.9,30.17.85,1.48,43.69-27,44.45-25.67l-44.38,27.64,40.31-23.27c1.45,2.52-43.67,21.18-40.79,26.17,0,0,35.55-20.62,35.59-20.55s-36.38,22-35.83,23c0,0,30.5-21.19,32-18.5.92,1.59-31.71,19.51-31.29,20.25.16.28,24.4-18.12,26.15-15.1,1,1.68-26.4,17.78-26.4,17.78S286.51,476,287,476.78l-21.58,15c.35.61,13.44-9.77,14.31-8.26s-16.84,9.7-15.7,11.67c.19.32,7.57-4.37,7.57-4.37.29.5-7.26,5.21-6.92,5.79l.81-.47" fill="none" stroke="#00286f" stroke-linecap="round" stroke-linejoin="round" stroke-width="0.7"/><path d="M402.79,264s.34-.24.36-.21c.13.22.21,2.53.26,2.62s4.63-3.44,5-2.87c.07.12-6.37,5.57-6.29,5.72.42.73,9-6,9.39-5.42.56,1-9.36,7.47-9.36,7.47l12.82-7.4c.61,1.06-13,9.45-12.6,10.1,1.08,1.88,17.06-12.68,18.29-10.56.8,1.39-18.74,12.37-18.39,13,1.28,2.22,19.93-14.78,21.35-12.33,1.24,2.14-21.69,15.22-21.69,15.22,1.09,1.89,26.4-15.24,26.4-15.24s-28.29,15.66-27.23,17.5c1.61,2.78,28.68-20.89,30.55-17.64l-30.42,19.78c2.34,4,31.79-23.49,34-19.64l-33.68,21.21c.51.88,37.2-21.72,37.31-21.54,0,0-39.27,21.73-38,23.89,2.5,4.32,39.06-26.44,40.74-23.52,1.23,2.13-41.34,25.87-41.33,25.88,2.07,3.58,42.73-30,45-26,1.64,2.84-46.2,25-44.32,28.24,2.81,4.87,47.35-30.75,48.83-28.19l-49.37,31L454.6,263.7c3.52,6.09-57.74,28.17-54.49,33.8,3.12,5.4,55-40.55,58.84-34,3.16,5.47-60.53,34.94-59.6,36.55l62.89-36.31c2,3.42-66.61,33.66-63.36,39.29,3.06,5.3,64.19-47.8,68.84-39.74.32.56-73.12,35.42-69.32,42,2,3.44,72.22-41.69,72.22-41.69,2.92,5.06-73.12,42.47-72.42,43.67,0,0,71.4-50.06,75.23-43.43C476.94,270,398,309.42,398,309.42s76.93-50.25,79.46-45.88c1.54,2.67-83.6,40.92-79.58,47.88,0,0,78.88-53,82.11-47.41,2.13,3.68-82.65,49.72-82.65,49.72.75,1.3,86.39-49.88,86.39-49.88.66,1.15-87,52.18-87,52.18,1.68,2.91,90.95-53.41,91.34-52.73,0,0-95.69,49.91-92.24,55.9,5.25,9.1,93.24-60.08,95.94-55.39,0,0-103,47.36-96.57,58.43,0,0,97.34-67.1,102.06-58.93,4.12,7.14-110.11,50.37-103.18,62.37,0,0,100.84-74.65,108-62.33,0,0-109.51,63.56-108.54,65.24,5.67,9.82,107.15-73.19,112.05-64.69,4.35,7.53-112.08,67.39-112.08,67.39,3.48,6,110.45-78.5,116.83-67.45,2.71,4.69-121.55,64.91-118.3,70.53,3.34,5.79,117.05-68.51,117.46-67.81,5.93,10.28-119.64,66.32-117.47,70.09,8.17,14.16,117.35-67.75,117.35-67.75,7.51,13-125.44,59.77-118.78,71.31l119.68-69.1c4,6.9-123.1,67.37-120.49,71.89,5.07,8.78,115.72-75.22,119.37-68.92,1.58,2.73-120.39,71.9-120.39,71.9S509.11,274.37,510,276c3.33,5.77-129,59.44-121.44,72.48,1.63,2.83,112.85-82.36,120.3-69.46,0,0-128.51,59.73-121.4,72,3.49,6,113.17-83.93,121.22-70,0,0-129.11,57.71-120.69,72.3l121.21-70S388.65,348.7,391.43,353.51c0,0,114.38-72.41,117.14-67.63,3.65,6.32-112,67.46-112,67.46.31.54,105.06-77.07,112.17-64.76,5.49,9.51-114.21,56.56-109.27,65.11,1,1.77,106.83-66.56,108.94-62.9C509.34,292.37,404,353,404.3,353.56c3.57,6.18,99.27-68.2,104-60L410.2,353c4.43,7.68,90.76-67,97.07-56l-93.88,56.44c1.57,2.73,89.52-61.1,93.6-54,1.87,3.24-91.47,51.76-90.16,54,2.17,3.76,83.1-61.9,89.13-51.46,2.3,4-87.12,48.58-85.6,51.21,4,6.89,80.27-60.07,86.21-49.77,3,5.19-82.91,47.51-81.7,49.61,4.13,7.15,80.44-47.41,80.86-46.69,2.1,3.63-78.46,45.77-77.86,46.8.83,1.43,72.79-52.07,77.14-44.54,0,0-74.14,44-73.49,45.15l72.77-42-69.45,41.85c1.82,3.16,69-41.31,69.61-40.19,3.31,5.73-67.09,37.44-65.41,40.35,3.36,5.83,61.64-41.56,64.23-37.08.61,1-59,35.88-58.71,36.46l58.12-33.56S445.15,347,448.6,353c1.16,2,53.83-31.08,53.83-31.08,2.37,4.11-52.82,26.27-49.8,31.51,0,0,46.69-32.87,49.25-28.43.4.7-45.9,27.08-45,28.57L500,328.62c2.67,4.63-40.92,21.84-39.07,25,2.1,3.64,37.88-21.87,37.88-21.87,1.47,2.55-33.75,19.31-32.64,21.24,2.15,3.72,31.88-18.41,31.88-18.41.43.74-27.84,18.53-27.84,18.53,1.53,2.65,26.07-18.78,27.69-16,.11.19-23,15.35-22.75,15.87l21.43-12.38c1,1.77-19.88,12.21-19.4,13,1,1.8,17.61-10.69,17.84-10.3.06.1-14.63,10.14-14.56,10.25,1,1.66,14-8.09,14-8.09l-10.06,8.2s8.27-6.09,8.84-5.1c.24.41-4.49,4.35-4.41,4.49s3.49-2.56,3.72-2.15c0,0-.9,2.14-.84,2.24s.28-.23.31-.18" fill="none" stroke="#00286f" stroke-linecap="round" stroke-linejoin="round" stroke-width="0.7"/><path d="M152.39,371.88s.26-.19.28-.16.38,2.15.45,2.27,4.51-2.7,4.55-2.63-3.16,3.52-3,3.75c.39.68,5.33-3.24,5.39-3.11.2.35-5.67,4.61-5.45,5,.34.58,8.54-5.52,8.8-5.08s-7.93,5.91-7.63,6.43c.62,1.08,11.45-6.61,11.45-6.61.4.7-11.29,7.68-11,8.12.8,1.39,12.7-8.9,13.38-7.72,0,0-12.61,9.66-12.55,9.76.3.52,17.13-11,17.59-10.16.17.29-15.76,11.76-15.76,11.76.18.31,19.2-13.51,20.25-11.69,1.45,2.5-20.47,13.78-20.47,13.79s24-14.21,24.17-14c0,0-22.92,15.07-22.69,15.46.35.61,25.8-15.87,26.22-15.14,1.11,1.92-25.66,16.18-25.39,16.65.61,1.06,28.26-17.54,28.79-16.62,1.6,2.77-28.52,18.54-28.52,18.54.23.4,32.26-19,32.44-18.73,0,0-33.05,17.06-31.23,20.22s33.39-24.56,35.67-20.6c1.74,3-34.62,22.82-34.62,22.82,2.62,4.53,38.59-23.15,39-22.5,0,0-39.81,20.08-37.53,24,.3.51,38.76-27.5,41-23.66,1.93,3.34-41.89,24.08-40.64,26.24,1.11,1.93,44.64-28.84,46-26.54,2,3.54-44.94,28.16-44.94,28.16s47.7-29.64,48.61-28.07c1.45,2.52-50,26.07-47.59,30.22,1.13,2,52.82-30.5,52.82-30.5s-53.4,30.23-52.22,32.28c.51.88,52.4-38.16,55.83-32.23.26.44-56.6,27.8-53.62,33,1.11,1.92,56.8-32.8,56.8-32.8.43.75-57.88,32.79-56.65,34.93,0,0,58.78-37.12,60.16-34.73,2.62,4.53-58.92,36.72-58.92,36.72.86,1.49,63.74-36.8,63.74-36.8l-61.95,37.81c1.31,2.28,63.44-42.06,65.79-38,2.14,3.7-65.3,39.52-65.3,39.52,2,3.41,68.13-39.34,68.13-39.34,1.39,2.41-68.45,39.94-67.73,41.18,2.17,3.76,71.85-41.55,71.88-41.5s-72.43,38.44-70.1,42.46c.26.46,71.53-42.09,71.87-41.5,1,1.71-72.61,41-71.23,43.41,3.7,6.41,68.68-45.42,71.18-41.09,2.11,3.65-71.62,42.29-71.05,43.27,1.28,2.21,70.46-40.68,70.46-40.68,3.38,5.85-69.19,39.84-68,41.86.32.55,66.29-41.09,67.51-39,4.52,7.83-71.06,33-66.42,41l66.63-38.47c.65,1.13-66.86,40.1-66.59,40.57,0,0,64.09-42.35,66.4-38.34,0,0-67.85,33.27-64.12,39.73,0,0,61.33-43.7,64.92-37.48,2.11,3.66-65.79,35.17-63.72,38.75s60.16-44,64.16-37c3,5.2-65.61,33.51-62.71,38.53,0,0,59.15-41.94,62.52-36.1,2.44,4.22-63.57,36.12-62.31,38.29,2,3.51,62.23-35.93,62.23-35.93,2,3.43-62.89,32.46-60.21,37.09,2.35,4.07,56.73-40.87,60.24-34.78.58,1-59.3,36.93-59.3,36.93,2.43,4.21,59.74-34.49,59.74-34.49,2.09,3.62-60.74,31.73-58.39,35.8,1.45,2.5,56.9-36.05,58.28-33.65,3.32,5.75-58.79,32.28-57,35.35,1.08,1.87,53.37-37.25,56.16-32.42l-54.86,34.15L247.54,406c.65,1.13-57.46,27.72-54.18,33.4.21.36,54.59-31.52,54.59-31.52,2.76,4.78-55.18,31.86-54.23,33.5.29.5,53.78-31,53.78-31,1,1.69-56.07,27.06-52.57,33.13,0,0,51.27-30.76,51.77-29.89,0,0-51.63,27.35-49.61,30.83C198.65,447.08,248,415,248,415c2.38,4.13-50.56,29.63-49.59,31.31,1.7,2.95,46.36-31.72,48.5-28,2.66,4.61-49.12,26.63-47.22,29.94S246,419.63,246.82,421c0,0-46.74,28.07-46.44,28.59,2.68,4.64,44.83-31.83,47.41-27.37.18.31-48,24.53-45.48,28.9,0,0,44.86-28,45.77-26.43,3,5.11-44.42,28.2-44.42,28.2.7,1.21,43.84-25.31,43.84-25.31,1.85,3.21-42.93,27.63-42.93,27.63s42.68-24.86,42.78-24.7c.82,1.41-42.59,24.81-41.74,26.28,1.51,2.62,40.66-25.91,41.72-24.09,2.38,4.12-41.87,22.52-40.36,25.13l41.13-23.74c1.53,2.64-40.92,21.86-39,25.13.92,1.59,36.47-23.59,37.57-21.69,0,0-37.76,22-36.83,23.61,0,0,37.69-22.89,38.18-22,1.87,3.23-37.19,21.3-36.32,22.81,2,3.46,35.25-20.35,35.25-20.35,2.23,3.85-36.76,18.47-34.37,22.61,0,0,33.42-23.33,35.17-20.3,1.91,3.3-33,20.88-32.59,21.67.26.45,32.42-18.72,32.42-18.72,1.5,2.61-32.75,18.25-31.31,20.74,1.56,2.7,28.84-20.26,30.4-17.55,0,0-31.29,16-29.57,19,0,0,27.9-20.32,29.72-17.16,1.32,2.28-28.19,18.76-28.19,18.76s27.8-16.59,28-16.18-26.52,17.33-26.17,17.94c0,0,26.18-16,26.55-15.33,1.25,2.16-25.46,15.29-24.6,16.77,0,0,23-16.29,24.32-14S223,473,224,474.77c1.59,2.76,23.45-13.54,23.45-13.54C249,464,224.92,476.39,225,476.56c.87,1.51,21.64-15.49,22.94-13.24s-23.2,12-21.82,14.42c.92,1.59,19.91-14.76,21.32-12.31,0,0-20.45,12.93-19.94,13.82.41.72,18.55-12.51,19.33-11.16,0,0-18.1,10-16.9,12.09s15.73-11.32,16.7-9.64c.77,1.34-16.24,11.92-16.24,11.92.12.2,16.92-10.1,17.07-9.85.79,1.38-15.53,10.81-15.53,10.81.23.39,14.61-10.63,15.56-9,.43.75-14.71,8.55-13.79,10.15s14.3-8.41,14.37-8.3-12.8,9.1-12.55,9.54c.48.83,10.76-7.93,11.5-6.64,0,0-10.41,7.06-9.86,8s9.8-6.41,10.13-5.85c0,0-9.86,7.23-9.36,8.1,0,0,9-6.41,9.55-5.52.29.51-8.21,6.36-8,6.78s8.26-5.26,8.48-4.89c0,.07-7.19,5.94-7,6.32,0,.06,5.72-3.38,5.75-3.32.31.53-4.12,4-4,4.23s4.09-3,4.36-2.52-3.7,3.93-3.63,4.07,3-2.13,3.2-1.85a31.5,31.5,0,0,0-1.43,2.85A21.71,21.71,0,0,1,248,494a15.56,15.56,0,0,0-.84,2.66s.14-.1.14-.08" fill="none" stroke="#00286f" stroke-linecap="round" stroke-linejoin="round" stroke-width="0.7"/><path d="M264.66,264a2.22,2.22,0,0,0,.35-.2c.05.09-.06,2.11,0,2.26.25.43,3-2.21,3.18-1.83,0,0-3.75,3.53-3.51,4l8.27-4.77c.09.16-8.32,7.57-8.32,7.57s11.16-8.35,12-6.92c.38.66-12,8.09-11.51,9,.74,1.29,15.32-9.19,15.46-8.93.46.79-16.38,10.77-15.95,11.52,1.13,2,20.58-13.37,21.23-12.25.38.66-21.76,13.83-21.3,14.63,0,0,23.58-17.15,25.12-14.5.72,1.24-24.72,15.87-24.37,16.46,1.61,2.78,27-18,28-16.18,1.41,2.44-29,19.27-28.83,19.52,0,0,33.31-22.31,34.64-20,.23.4-35.38,19.25-34.09,21.48.45.79,36-23.23,37.07-21.4.28.49-38,24-38,24L304.67,264S263,285.68,264.93,289.06c2.66,4.6,41.58-29.3,43.87-25.33.61,1.05-44.22,28.42-44.22,28.42,2.37,4.11,48.68-29,49-28.32,1.32,2.29-49,30.36-49,30.36,2.56,4.43,51-32.78,52.47-30.29,0,0-54.79,26.76-51.65,32.18,3,5.24,53.47-36.17,55.76-32.19s-59.58,30.74-57,35.16c3.94,6.83,60.83-35.12,60.83-35.12,3.62,6.26-62,35.42-60.6,37.85,2.35,4.07,62-45.05,66-38.12,3.69,6.4-69.15,35.42-66.18,40.57,1.08,1.86,66.22-47.39,70.18-40.52,2.65,4.59-71.88,38.21-69.41,42.48,3,5.12,73.84-42.63,73.84-42.63,4.19,7.27-77.23,40.24-74.48,45,3.54,6.13,77.08-47.44,78.35-45.24l-78.77,48c.48.83,81.16-48.08,81.69-47.17,5.08,8.8-81.55,49.32-81.55,49.32,1.56,2.7,85.45-49.33,85.45-49.33L264.47,315.4c1.87,3.23,84.05-62.22,90-52,0,0-94.3,47.56-90.39,54.34.21.36,88.51-64.57,94.34-54.47s-98.51,49-94,56.88c5.94,10.28,92.65-64,97.19-56.11C367,273.45,265,322.2,265,322.2c2.69,4.65,97.94-64.78,101.5-58.6,3.88,6.71-105.47,55.91-102.45,61.15,5.63,9.75,102.42-65.57,105.21-60.74,2.13,3.68-108.32,56.13-104.77,62.29.73,1.26,105.29-66.66,107.83-62.26,0,0-108.51,62.81-107.81,64,0,0,108.59-71,112.17-64.76,0,0-114.67,61.17-111.69,66.33.91,1.58,113.76-65.68,113.76-65.68,5.64,9.77-118.74,59.35-113.61,68.25,8.06,14,118.36-68.34,118.36-68.34C390.14,275.35,264,334.75,264,334.82c5.26,9.11,119.55-69,119.55-69,6.3,10.91-119,71.4-119,71.4s117.31-74.57,120.27-69.44c8.14,14.1-124.1,65.65-120.52,71.85,4.29,7.42,113.94-78.39,119.4-68.93L264.26,342.28c4.41,7.64,119.07-68.74,119.07-68.74s-121.1,66.9-118.92,70.69c0,0,114.86-77.31,119.62-69.06,2.46,4.26-123.27,62.5-118.6,70.58,0,0,115.42-73.17,118.25-68.27,4.62,8-120.18,70.4-119.53,71.53,5.57,9.65,118.58-68.46,118.58-68.46,7.69,13.32-119.91,67.63-118,71,3.37,5.84,117.61-67.9,117.61-67.9,4.92,8.53-124.9,56.08-117,69.83,6,10.33,116-69.73,117.2-67.66,4.68,8.11-115.77,61.32-112.29,67.34,6.15,10.66,111.82-64.56,111.82-64.56,1.84,3.18-113.64,57.08-109,65.08,0,0,108.24-65,109.34-63.13,1.66,2.88-106.57,58.25-104.09,62.54,5.13,8.89,99.79-68.28,104.41-60.28,4.3,7.45-106.26,49.47-100,60.32,1.58,2.73,97.63-57.41,98.08-56.63,5.55,9.62-97.93,53.05-95.67,57,1.77,3.07,96.59-55.76,96.59-55.76l-92.67,55.85,92.45-53.38s-88.83,52.44-88.47,53.06c2.65,4.59,84.6-54.48,87-50.25,1,1.8-86.88,45.42-83.8,50.76,2.48,4.29,80.81-52.63,83.39-48.15,0,0-81.4,43.82-78.94,48.09,0,0,77.22-49.46,79.33-45.8L304.81,353.3c.29.51,72.47-46.17,74.35-42.92,4.37,7.58-71.26,43.32-71.26,43.32,3.67,6.36,66.58-47,70.29-40.58,4.58,7.93-66.27,38.2-65.35,39.78,0,0,63.06-39.89,64.57-37.28,4.12,7.14-60.15,37.36-60.15,37.36s57.16-41.49,60.84-35.12c.62,1.08-58.23,35.39-58,35.72,1.3,2.26,55.68-35.8,57.26-33.06,3,5.28-53.32,31.51-52.58,32.79,2.37,4.1,51.12-29.51,51.12-29.51.86,1.48-50.43,24.31-47.52,29.35,1.45,2.51,45.7-31.15,47.76-27.58.7,1.22-45.29,26.44-44.62,27.59.9,1.57,44-25.41,44-25.41,1.72,3-42.46,20.71-39.8,25.33,1.67,2.9,38-21.94,38-21.94,2.1,3.64-35.76,21.34-35.15,22.4,0,0,33.09-22.13,34.4-19.86.42.73-31.23,17-29.67,19.71,0,0,28.83-19.55,30.09-17.37,1.8,3.12-25.22,16.46-24.93,17,.16.27,21.41-16,23-13.28,0,0-19.86,12.31-19.07,13.68.37.65,18-12.12,18.75-10.83.28.49-14.78,10.29-14.53,10.72.51.88,12.19-8.18,12.68-7.32,0,0-8.82,6.7-8.65,7,.27.47,7.4-5.44,7.9-4.56.32.56-4.16,4.68-4.16,4.68s4.06-2.41,4.08-2.36" fill="none" stroke="#00286f" stroke-linecap="round" stroke-linejoin="round" stroke-width="0.7"/><path d="M28.52,371.88s.27-.16.27-.15c.1.18-.14,1.88,0,2.05l3-1.74-2.14,3.09s5.92-4,6.17-3.56c0,0-4.61,5-4.51,5.14.54.94,7.95-4.84,8.06-4.65s-6.8,5.75-6.41,6.43,11.74-7.5,12.05-7-12,8.92-11.61,9.58c.87,1.5,16.48-10.06,16.72-9.65.76,1.31-16.51,10.23-15.89,11.32,1.2,2.07,18.37-10.86,18.48-10.67.83,1.44-17.75,10.41-16.9,11.88C36,384.4,56.52,370.8,57,371.71S36.12,385.93,36.33,386.3c0,.05,25.07-14.47,25.07-14.47.52.9-25,13.19-23.43,15.92.33.57,26.7-18.12,27.87-16.09,1.83,3.18-29,15-27.34,17.89,1,1.74,28.57-21.07,30.55-17.64.39.68-31.3,18.37-30.49,19.77.71,1.23,34.64-20.47,34.84-20.12,1.65,2.87-33.24,21.62-33.24,21.62,1.63,2.82,34.87-23.76,36.44-21,.16.28-35.24,22.76-35.24,22.76,1.21,2.09,38-26.07,39.77-23,.28.49-41.38,20.73-39,24.88.31.54,42.53-27.36,43.75-25.26,1.46,2.54-45,23-42.47,27.39.62,1.08,45.21-29.67,46.76-27,0,0-47.79,24.08-45.24,28.49,0,0,49.86-30.06,50.41-29.1,0,0-51.6,27.19-49.62,30.62.48.84,50.27-33.94,52.4-30.25,0,0-53.3,27.72-50.81,32l56-32.36c.79,1.37-55.62,31.76-54.6,33.52,0,0,54.43-38.75,57.6-33.26,0,0-59.41,29.56-56.14,35.22,1.08,1.87,61.6-35.57,61.6-35.57l-60.4,36.65c1.46,2.53,59.14-43.92,63.37-36.59,4.13,7.16-62.26,38.21-62.26,38.21,1.46,2.52,64.82-38.2,65.15-37.62,1,1.77-64.34,39.62-64.34,39.62,4.72,8.17,67.08-44.11,69.41-40.07.58,1-68.6,41.63-68.6,41.63s72-41.62,72-41.59c1.23,2.13-74.52,36.14-70.38,43.32,3.68,6.38,69.85-51.64,74.75-43.16,4.56,7.9-76,40-73.1,45.08,4.15,7.2,74.26-46,75.6-43.65.83,1.43-78.38,37.46-73.91,45.19,0,0,71.2-50.48,75.26-43.45.67,1.16-75.2,45.56-75.2,45.56,3.68,6.37,72.41-49.82,75.88-43.81.6,1-73.51,44.65-73.51,44.65,1.75,3,68.68-50.47,73.36-42.36l-72.48,43.9c4.17,7.23,70.93-47.26,73.66-42.53,1.47,2.54-75.17,39.61-72.53,44.2,0,0,72.21-43.75,73.1-42.2,0,0-74.7,40.44-72.57,44.14,1.4,2.42,74.18-42.83,74.18-42.83s-73,42.12-72.06,43.82c.07.12,69.91-46.67,72.64-41.94,2,3.44-74.75,39-72.16,43.52,3,5.11,72.53-41.88,72.53-41.88,1.45,2.51-70.47,42.42-70.47,42.42,2.77,4.8,69.6-43.8,71.16-41.09,2.25,3.89-70.25,43.12-70.2,43.21,3.07,5.31,70.29-40.58,70.29-40.58,2.88,5-73.37,33.92-68.94,41.59C76,441,138.43,387.83,141,392.3c0,0-69.12,41.71-69,41.93,2.65,4.6,69.43-42.57,70.51-40.71C143.36,395,70.72,428.59,74.4,435c.89,1.53,65.31-43.89,68-39.25,0,0-67.41,40.38-67.28,40.6.9,1.56,68.37-40.31,68.73-39.68,0,0-73,33.54-68.4,41.58,0,0,66.52-44.67,69.23-40,.91,1.58-67.15,40.87-67.15,40.87,1.06,1.83,68.57-39.59,68.57-39.59.29.5-66.93,40.48-66.93,40.48s65.28-40.58,66.53-38.41c4.59,8-68.2,37-66.32,40.27.16.27,65.6-42.27,67.5-39,1.29,2.24-67.06,39.06-66.33,40.32s65.59-42.48,67.59-39c4.48,7.75-64.93,39.43-64.82,39.62.2.35,65.66-38,65.7-37.93,1.36,2.35-66.19,37.5-65,39.62,0,0,62.87-42.66,65.62-37.89.16.28-63.64,39.23-63.64,39.23,2.26,3.92,59.76-44.47,64.08-37C150.94,411.26,88,448,88,448c.47.82,60.71-42.22,63.82-36.84.62,1.08-65.21,35.86-63.49,38.83,4.33,7.51,65.05-37.56,65.05-37.56L90.75,450.8c.09.16,58.79-41.84,62.21-35.92.25.44-62,36.79-61.25,38,1.54,2.67,63.43-36.62,63.43-36.62,1.81,3.13-61.85,37.79-61.85,37.79,3.31,5.73,60-40.82,62.71-36.2,3.93,6.8-61.43,36.76-61.18,37.19,2.24,3.88,61.57-35.54,61.57-35.54,4,6.92-63.45,31.34-60.2,37,3.92,6.79,59.79-39.57,62-35.78,4.08,7.06-60.89,34.88-59.92,36.56,2,3.47,60.84-35.12,60.84-35.12,2.32,4-60.14,36.76-60.14,36.76,2.12,3.66,57.9-38,59.89-34.58,2.31,4-57.92,35.67-57.92,35.67s59.51-36.31,60.35-34.85c0,0-59.76,33-57.93,36.13.13.23,58.9-34,58.9-34,2.08,3.61-58,34.48-57.39,35.45.78,1.36,56.12-35.86,57.62-33.27,2,3.43-58.23,30.49-55.67,34.92,2.43,4.21,55.44-35.93,57.13-33l-55,34.6c.57,1,56.92-33.31,57.12-33,0,0-56.68,31.41-54.91,34.48,1.18,2,52.94-37.61,56-32.32,3.56,6.17-54.57,33.41-54.22,34,.84,1.45,52.58-35.33,54.73-31.6,0,0-56,26.69-52.47,32.77,3.13,5.41,52.47-35.27,54.62-31.54l-53,32.92c1.34,2.32,52.51-33.34,53.82-31.07,0,0-52.53,28.79-50.73,31.9.12.21,49.86-34.39,52.29-30.19,2.16,3.74-51.88,29.33-50.84,31.13s51.53-29.75,51.53-29.75c2.77,4.8-51,31.21-51,31.21l53-30.58s-53.68,25.7-50.5,31.21c2.66,4.61,50.74-29.34,50.76-29.31,3.26,5.64-49.63,30.89-49.61,30.93,1,1.76,50.6-29.21,50.6-29.21,1.38,2.39-49.42,28.95-48.68,30.23s48.84-31.48,50.26-29c1.3,2.26-50.28,24-47.07,29.53,1.63,2.83,48.51-28,48.51-28,2.61,4.52-48.64,26.87-46.9,29.89l48-27.69s-47.55,25.24-45.8,28.27l46.43-26.8c.15.26-44,26.84-43.35,27.9,1.13,2,44-28.87,45.49-26.27,1.64,2.84-45.18,23.6-42.89,27.57.94,1.62,41.85-30.89,44.76-25.84.52.9-44.27,27.44-44.21,27.55s43.23-29.21,45.07-26c1.63,2.82-43.2,24.2-41.82,26.58,1.63,2.83,41.48-28.59,43.49-25.11,2.73,4.73-44.5,23-42.19,27s40.44-29.16,43-24.8c.86,1.48-40.48,25.74-40.39,25.9,1.81,3.13,42.2-24.37,42.2-24.37,1.82,3.15-41.59,21.81-39.48,25.47,2.71,4.69,39.1-26.21,40.67-23.48.16.27-39.67,21.92-38.34,24.23,2,3.48,39.11-25.22,40.25-23.24,0,0-37.7,24.12-37.62,24.25,2.55,4.42,39.52-22.82,39.52-22.82,1,1.66-38.43,20.76-36.58,24s37.39-21.59,37.39-21.59c2,3.41-36.86,20.4-35.46,22.84,2.12,3.67,36.61-21.49,36.77-21.23,1.62,2.8-35.9,17.62-33.65,21.52,1.89,3.27,34.65-21.56,35.32-20.39,1.15,2-34.95,19.56-33.65,21.8l34.81-20.1s-33,19.47-32.35,20.61S200.85,477,200.85,477c.43.74-33.76,17-31.88,20.21,0,0,32.86-19.58,33.12-19.12.37.64-30.78,20.3-30.78,20.3,2,3.5,31.84-18.61,31.94-18.44,1.08,1.88-31.16,16.39-29.71,18.9.12.21,28.87-20.69,30.62-17.68.16.28-27.63,18-27.63,18,.82,1.43,27.66-20.56,29.64-17.11.57,1-29.32,17.95-29,18.51,1.87,3.24,29.7-17.15,29.7-17.15,1.75,3-27,16.83-26.59,17.45l28.2-16.28c.59,1-28.07,15.29-26.85,17.4,0,.06,26.16-18.46,27.61-15.94.42.72-25.62,14.64-24.55,16.48,1.37,2.38,27-15.94,27.18-15.69.53.91-24.54,14.45-23.67,16,0,0,22.86-16.17,24.14-13.94,1,1.68-22.78,15.44-22.78,15.44l24.14-13.94c1,1.65-21.77,12.69-21,13.95,0,0,21.67-13.46,22.08-12.75.86,1.49-20.18,12.32-19.64,13.25l22-12.68c.07.12-21.08,12.74-20.49,13.76,1.33,2.31,20.85-12.41,21-12.13.48.84-18.81,11.32-18,12.75.52.89,18.58-13.25,19.67-11.36,0,0-16.44,9.88-15.56,11.4,1.11,1.92,16.56-12.27,17.74-10.24.5.87-15.92,9.93-15.44,10.75.37.64,16.34-10.69,16.88-9.75.91,1.58-14.9,8.89-13.87,10.66.51.88,15.37-9.12,15.48-8.94.69,1.2-13.34,9.14-12.86,10,.93,1.61,14.22-8.21,14.22-8.21.49.86-11.07,8.36-10.86,8.73.62,1.08,11.87-6.85,11.87-6.85.18.3-7.34,6.71-7.25,6.88s10.33-6,10.33-6c.31.54-8.21,5.81-7.66,6.76.39.67,9-5.48,9.09-5.25.38.66-6.72,5.42-6.6,5.62.41.72,7.56-5.33,8-4.61s-6,5.21-6,5.21c.13.22,6.76-4.71,7.11-4.11.24.42-2.84,3.33-2.63,3.7s3.21-2.11,3.32-1.92a21.35,21.35,0,0,0-.25,2.32,24,24,0,0,1,3.06-1.76c.06.11.12,1.88.12,1.88s.5-.3.51-.29" fill="none" stroke="#00286f" stroke-linecap="round" stroke-linejoin="round" stroke-width="0.7"/><path d="M386.79,158.85s.29-.18.3-.17l.18,1.69c.06.1,2.45-1.68,2.57-1.48s-1.54,2.65-1.54,2.65,4.73-3,4.83-2.79c.33.57-4.76,4.36-4.46,4.89s7.44-5.32,7.88-4.55c.15.26-8.87,5.81-8.33,6.74.34.58,11.63-7.83,12.11-7,.15.26-11.31,7.9-10.91,8.58.78,1.35,15.4-8.89,15.4-8.89s-15.73,9.1-14.89,10.56c.71,1.22,17.07-11.58,17.81-10.28,1.14,2-16.74,11.52-16.74,11.52,1.21,2.09,20-12.11,20.28-11.71.1.18-20.44,13.48-20.14,14s24.26-14.79,24.6-14.2c.87,1.51-23.57,15.44-23.57,15.44.3.52,24.44-17.5,25.91-15,.83,1.44-27.84,15.84-26.81,17.64,0,0,29.48-19.86,30.71-17.73s-29.8,19.18-29.7,19.36c0,0,32.51-22.84,34.27-19.79,0,0-34.32,21-34,21.58,1.46,2.52,37.1-21.42,37.1-21.42l-36.24,23.71c.48.83,37.77-27.67,40.31-23.27.78,1.36-42.27,21.09-39.8,25.36,2.37,4.1,44.51-27.35,45.22-26.11,1.26,2.18-45.28,28.48-45.28,28.48,2.59,4.48,48-27.74,48-27.74L394.8,188.06c1.35,2.33,47.8-33.87,50.51-29.16.66,1.15-51.88,28.63-50.12,31.67.17.3,53.86-34.28,55.24-31.89,2,3.42-58.45,27.74-55.07,33.59.54.93,57.33-33.61,57.55-33.23,3.78,6.55-57.12,34.95-57.11,35,.4.69,60.74-35.2,60.8-35.1,4,6.85-61.72,33.58-60,36.57,1.88,3.25,60.21-44.51,64.43-37.2.35.6-63.61,39.2-63.61,39.2,1.88,3.25,63.61-46.08,67.66-39.07,3.7,6.42-67.81,41.52-67.81,41.52,1.65,2.86,69.22-45.9,71.79-41.45,3.82,6.62-73.78,37.38-70.31,43.4,3.17,5.49,74.58-43.9,74.94-43.27,3.72,6.44-77.72,42.09-75.4,46.11s75.79-52.29,79.48-45.89c0,0-81.17,44.26-79.23,47.62,0,0,82.36-48.21,82.65-47.72,0,0-86.86,43.11-82.7,50.33,4.89,8.48,85.91-51.43,86.7-50.06.16.29-86.32,51.91-86.32,51.91l90.92-52.49C493,164,400,212.79,400,212.79c2.36,4.09,87.1-63.29,92.73-53.54,2.32,4-95.4,50.2-92.18,55.79,3.64,6.3,87.11-62.22,92.28-53.28,3.35,5.8-95.83,50.56-92.64,56.08,4.27,7.4,94.25-54.41,94.25-54.41l-93.09,56.45c4.27,7.4,90.48-60.24,93.94-54.24L401.1,221.83c5.57,9.64,89.41-60.75,93.37-53.9,1.35,2.34-92.9,55.81-92.9,55.81,5.53,9.57,91.23-59.23,94.07-54.31,6.41,11.1-93.57,56.24-93.57,56.24,4.31,7.47,93.79-54.15,93.79-54.15,5.81,10.06-100.53,47.4-94.8,57.33,0,0,95.95-56.27,96.32-55.61,4.08,7.07-100.62,48-95.35,57.14,0,0,93.57-59.34,95.87-55.35,4.28,7.41-98.23,52.41-95.41,57.31l95.69-55.25-95.27,57.51c4.6,8,91.54-62.86,95.87-55.35,0,0-100.29,51-96.46,57.64,6.52,11.3,91.12-67.66,97.64-56.37.78,1.35-103.78,47.21-97.35,58.35,6.24,10.8,96.47-59.37,98.06-56.62,4.2,7.27-97.52,58.34-97.52,58.34,6.22,10.78,90.68-68,97.45-56.26,1.1,1.9-101.73,53-98.48,58.61,0,0,97.26-61,99.37-57.37,5.8,10-99.65,56.59-98.27,59,0,0,94.79-62.15,98-56.58,0,0-101.05,53.16-97.85,58.7,0,0,91.28-68,97.92-56.53,4.59,7.95-99.32,50.69-95.21,57.82,4,6.87,96.48-55.7,96.48-55.7,6.21,10.76-93.28,56.26-93.28,56.26,6.38,11.05,87.12-64.48,93.26-53.84,2.61,4.51-89.05,53.08-89,53.21,3,5.2,85.64-60.51,90.43-52.21,1.56,2.7-90.48,47.26-87.27,52.84,0,0,85.92-52.31,87.09-50.28,3.77,6.52-87.62,41.35-82.52,50.19.89,1.55,83.36-48.13,83.36-48.13C508.8,207.4,425,248.43,425,248.43S504,200,505.25,202.1c0,0-80.17,38.05-75.52,46.1.22.38,75-43.32,75-43.32,2.38,4.13-73.26,38.41-70.41,43.34,0,0,69.27-45.24,71.54-41.31,3.26,5.65-72.12,35.1-68.45,41.47,0,0,64.84-46.57,68.8-39.72l-64.68,39.8c1.72,3,64.88-37.46,64.88-37.46,1.25,2.17-62.54,32.14-59.73,37,.34.6,59.15-38.11,60.87-35.14,1.54,2.66-58.52,33.58-57.52,35.3,2.62,4.53,57.9-33.43,57.9-33.43,1.84,3.19-53.87,32.13-53.07,33.52,1.46,2.53,52.1-30.08,52.1-30.08,1,1.73-49.57,27.62-48.12,30.13.31.53,49.66-28.67,49.66-28.67,2,3.45-44.67,27.39-44.16,28.27s43.27-27,44.14-25.48c.1.18-42.15,25.61-41.81,26.19.84,1.45,41.29-23.84,41.29-23.84S468,245,470,248.44c2.47,4.29,38.55-23.89,39.25-22.66,1.16,2-37.83,19.44-35.86,22.87,0,0,33-24,35.18-20.31,0,0-31.32,17.25-29.92,19.67.37.65,29.37-20.74,31-17.9,2,3.45-28.71,16.91-28,18.19,1.3,2.25,27.17-15.69,27.17-15.69,1.41,2.45-22.3,15.44-22.3,15.44S508.27,233.37,509.2,235c.8,1.38-20.72,11.72-19.63,13.61,1,1.66,20.6-12.35,20.8-12,.92,1.59-16.93,11.47-16.77,11.75,0,0,15.73-11.47,16.77-9.68.57,1-13.93,9.79-13.93,9.79s12.17-8.69,12.89-7.44c.19.32-8.28,7.45-8.28,7.46s8.39-5.94,8.86-5.12c.33.58-3.7,4.22-3.52,4.54s3.45-2.61,3.72-2.15c.15.26-1.18,2.54-1,2.84a5.32,5.32,0,0,0,.63-.36" fill="none" stroke="#00286f" stroke-linecap="round" stroke-linejoin="round" stroke-width="0.7"/><path d="M127.45,264.09s.08-.08.09-.05.82,2.22.82,2.22c.22.39,4.15-2.39,4.15-2.39.33.58-4.71,5.24-4.57,5.48.25.43,9.14-5.28,9.14-5.28.34.59-8.6,7-8.6,7l13.46-7.77c.15.25-15.28,8.78-14.27,10.53.35.61,17.2-12.19,18.18-10.5.1.18-18.4,11.84-17.69,13.06,1.1,1.9,22-12.7,22-12.7.18.31-21.83,14.39-21.83,14.39.39.68,25.1-14.49,25.1-14.49s-24.94,15.77-24.35,16.8c.39.68,29.05-16.77,29.05-16.77S128.46,281.6,129,282.59s30.55-21.23,32.1-18.53S129,283,129.85,284.54c.38.66,34.16-25.43,36.63-21.15,0,0-37.89,22.71-37.29,23.74,1.78,3.08,39.61-24.5,40.32-23.28,2.57,4.46-39.76,25.22-39.76,25.22,1.54,2.67,44.25-26.24,44.55-25.72,1.18,2-46.24,26.66-45.07,28.68,1.73,3,47.6-29.74,48.58-28,2.58,4.47-48,29.73-48,29.73L181,264.16c1.61,2.79-53.63,26.12-50.5,31.54.41.71,54.79-32.15,55-31.76,1.15,2-54.18,33.09-54.18,33.09.14.24,54.8-36.67,57-32.9.46.8-59.16,33-57.56,35.75,4.25,7.36,62.45-36.58,62.68-36.19,2.42,4.19-64.32,35.2-62.47,38.41,0,0,65.75-39.37,66.36-38.31l-65.15,39.68c2.78,4.82,67.39-41.33,68.44-39.51,1.65,2.86-68.52,41.56-68.52,41.56,2.4,4.15,70-47,72.9-42.09,4,6.86-73.23,44.5-73.23,44.5,3.14,5.44,73.28-51.08,77.08-44.5,1.81,3.13-81.49,36.87-76.21,46,2.58,4.47,75.15-53.09,79.35-45.81,3.36,5.82-78.42,47.65-78.38,47.73,2,3.5,76.31-56.93,81.89-47.28,0,0-82.56,48.63-82.12,49.39,1.34,2.33,80-59.74,85.88-49.58,0,0-91.31,41.19-85.46,51.31,5.36,9.28,89.74-51.83,89.74-51.81,3,5.19-89.68,54-89.68,54,.22.39,89.46-58.88,92.59-53.46,1.54,2.67-97.09,45.55-91.54,55.15s95.9-55.48,95.95-55.39-97.28,54.76-95.46,57.91c6.47,11.2,98-61.89,100.27-57.89,6.19,10.72-106.89,48.71-100,60.59.18.32,105.33-60.81,105.33-60.81,4.37,7.57-104.06,61.86-104.06,61.86,5.87,10.17,101.54-70.48,106.67-61.59l-107.34,64c3.84,6.65,106-71.24,110.37-63.72,4.67,8.08-111.34,62.43-109.7,65.27,0,0,103.5-75.42,110.29-63.67,2.13,3.69-112.73,60.92-109.83,65.95.72,1.24,108.93-64,109.41-63.17,3.78,6.54-109.17,65.15-109.17,65.15,2.55,4.41,108-67.92,110.42-63.75,1.75,3-114.13,55.52-108.53,65.22,5.36,9.28,108-62.34,108-62.34.91,1.58-111.48,58.05-107.75,64.51,4.2,7.27,107.81-62.24,107.81-62.24,5.82,10.08-109.8,61.93-108,65,4.89,8.48,107.3-62,107.3-62,5.1,8.83-106.36,64.06-106.36,64.06,2.21,3.83,101.74-70.93,107-61.79,0,0-112.71,50.72-105.73,62.8,6,10.46,104.89-60.56,104.89-60.56,4.8,8.31-108,57.91-105.29,62.56,3.05,5.29,105.72-61.77,106-61.22,4,6.85-108.39,56.19-104.52,62.89,2.33,4,101.2-65,104.05-60.08,1,1.69-105.69,57.15-103.15,61.54,5.41,9.37,103-60.89,103.6-59.81.9,1.56-102.69,61.86-102.69,61.86,4.2,7.27,97.29-69.57,103.1-59.52,2.09,3.63-106.11,55.28-102.38,61.74,6.44,11.16,97.19-67.13,102-58.87,0,0-102.63,53.19-98.95,59.57,6.19,10.72,98-59.54,99.25-57.3l-95,57.35s90.14-61.56,94.26-54.42c5.8,10-89.9,54.51-89.9,54.51,3.72,6.43,86.9-58.19,90.38-52.18,3.26,5.65-85.91,52.33-85.91,52.33s79.68-58.6,85.13-49.15c2.66,4.61-80.27,48.77-80.27,48.77,4.37,7.57,76.89-54.33,81.19-46.88,0,0-80.37,40-76.35,46.91,1.09,1.88,76.24-44.34,76.38-44.1,0,0-75.67,40.14-73.19,44.43.47.81,69.82-47.43,72.91-42.09.74,1.29-70.91,37.58-68.28,42.15.29.51,66.17-42,67.81-39.15,4,6.88-66.62,31.19-62.29,38.68,1.6,2.78,58.56-43.12,62.59-36.14S185.06,350.09,187,353.44c1.27,2.2,60.19-34.75,60.19-34.75l-57.36,35c1,1.68,57.52-33.21,57.52-33.21,3.66,6.34-54.48,29.42-52.38,33.06S247,321,248.13,322.85c0,0-49.84,28.89-48.93,30.47,2.81,4.86,47.42-27.68,47.55-27.45,1.3,2.26-44.18,24.47-42.62,27.17.88,1.53,42-25.84,42.66-24.63.05.09-38.88,24.93-38.88,24.93.54.93,37.57-27.13,39.92-23.05.47.81-35.6,23.43-35.6,23.43.64,1.11,33.31-23.54,35.17-20.31,2,3.4-31.35,19.43-31.15,19.77.86,1.48,29.41-19.7,30.58-17.66.61,1.06-29.81,15.26-28.17,18.1,0,0,28.47-16.91,28.68-16.56,0,0-23.77,14.9-23.13,16,1.08,1.86,23.13-14.9,23.8-13.74,0,0-22.56,12-21.26,14.3.06.11,19.13-13.43,20.17-11.64,0,0-15.65,9.87-14.93,11.11,0,0,15.14-9.17,15.33-8.85.64,1.11-11.87,9.08-11.69,9.4,0,0,10.54-7.12,11-6.34,0,0-7.22,6.09-7.08,6.34l8-4.64c.12.2-3.44,4.66-3.44,4.66l3-1.75" fill="none" stroke="#00286f" stroke-linecap="round" stroke-linejoin="round" stroke-width="0.7"/><path d="M265.21,158.56s.14-.12.16-.09c.17.3-1.11,3.08-1.11,3.09s4.9-3.12,5-2.9c.29.51-5.43,5.23-5.15,5.73.37.65,10-7,10.54-6.09.13.23-9.78,6.68-9.42,7.29.66,1.14,12.18-8,12.6-7.28,0,.07-13.47,10.42-13.47,10.42.22.38,17.51-10.11,17.51-10.11s-18.17,11-17.42,12.31c1,1.78,19.91-14.26,21.11-12.19.8,1.38-21.07,14.92-21.07,14.92s26.13-16.33,26.67-15.4c.25.44-27.81,14.91-26.24,17.63,1.84,3.18,30.11-17.38,30.11-17.38,1.71,3-30.88,18-30.15,19.29.88,1.52,33.26-19.2,33.26-19.2,2.26,3.92-36.09,18.31-34.19,21.6.36.62,37.44-21.62,37.44-21.62,2,3.4-36.17,23.16-36.17,23.16.15.26,39.89-23,39.89-23S263.31,180.37,265.4,184c0,0,40.83-29.07,43.21-24.95,2.67,4.62-45,24-43.18,27.14,1.53,2.65,45.51-32.46,48.19-27.82,1.55,2.69-49.36,30.86-49.36,30.86,3.54,6.12,53.34-31.44,53.61-31,2.33,4-56.13,27.19-52.83,32.9,3,5.27,56.45-32.59,56.45-32.59.85,1.46-56.77,34-56.26,34.92,2.62,4.54,59.54-34.37,59.54-34.37,1.33,2.31-63.95,30.52-60.3,36.83,1.11,1.93,62.2-42.76,65.16-37.62,4.19,7.26-66.94,36.9-65.34,39.68l68-39.26c2.27,3.93-67.61,41.38-67.61,41.38s69.81-44.7,71.71-41.4c0,0-75,36-71,43,4.49,7.78,74.51-43,74.51-43,3.17,5.48-79.6,37.3-74.76,45.68,4.23,7.33,76.9-50.6,79.58-45.95,3.39,5.87-85.68,40.14-80.47,49.17,3.15,5.46,80.79-55.66,84.69-48.9,2.64,4.56-84.91,50.93-84.61,51.44,2.26,3.92,88.69-52.4,89.21-51.5,3.28,5.69-93.19,44.89-88.34,53.31,0,0,88-59.23,91.66-52.92,3.42,5.93-93.45,53.73-92.26,55.79,0,0,92.7-63.89,97.19-56.11,0,0-102.76,50.61-97.87,59.07,2.56,4.44,95.3-70.1,101.83-58.79,4.16,7.2-101.76,60.76-101.76,60.76,6.1,10.57,104.36-60.25,104.36-60.25s-107.67,53.79-103,61.83c5.48,9.5,97.09-68.89,102.64-59.26,0,0-108.6,51-102.65,61.31l103.84-60c6.13,10.62-108.35,54.37-103.88,62.12,0,0,100-67.47,104.24-60.19,2.35,4.06-106.69,58.47-104.24,62.71s104.89-60.56,104.89-60.56c.76,1.32-110.6,53.79-105.24,63.07,5,8.66,106.43-61.45,106.43-61.45,4.17,7.22-106.24,63.44-106.24,63.44,4.95,8.57,99.45-72,105.76-61.06,5.82,10.09-112.75,52.82-106.54,63.58,0,0,106-64.71,107.52-62.08C378,183.57,263.59,234.13,265,236.5c5.77,10,106.69-61.59,106.69-61.59,5.28,9.14-108.72,62.55-107.75,64.23,0,0,102.59-74.3,109.12-63,7,12.17-108.58,64.75-108.58,64.75s106.65-67.64,109.28-63.09c5.54,9.59-114.88,54.74-109,64.88,4.68,8.11,108.51-65.13,109.59-63.27.16.27-115.37,55.7-109.71,65.51,7.3,12.64,108.92-65.72,110.15-63.59,1.73,3-111,63.92-109.73,66.1,0,0,106.16-69.3,109.63-63.29,7.27,12.59-108.67,62.57-107.83,64,0,0,104.55-70,108.71-62.77C382.75,198,265.13,239,270.35,248c4.29,7.43,101.72-67.39,105.47-60.89.64,1.12-106,53.49-101.72,61,.71,1.22,102.54-59.2,102.54-59.2S272,237.77,277.85,247.81C282.59,256,371,180.13,377,190.57c.78,1.35-99.34,50.83-95.36,57.72C286,256,372.05,184.71,377,193.24c1.09,1.9-92.91,52.83-91.61,55.09.9,1.55,92.76-54.4,93.12-53.77C384,204,290.9,248,290.9,248c1.23,2.12,87.13-52.57,88.12-50.87,3.89,6.74-88.81,42.4-83.9,50.91,3.06,5.31,83.34-48.12,83.34-48.12,3.87,6.7-83.31,42.63-79.91,48.52,1.36,2.35,81.24-46.91,81.24-46.91,1.29,2.23-81.5,41.25-78.14,47.08,1.36,2.36,76.22-48.44,78.14-45.11,3.12,5.41-73.88,44.82-73.88,44.82,1.62,2.81,73.48-42.43,73.48-42.43,1.58,2.73-72,40.88-71,42.76.41.7,67.32-47.93,71.24-41.13,0,0-66.68,40.61-66.4,41.09,0,0,66.59-38.93,66.8-38.57,0,0-62.06,37.17-61.41,38.29,3.19,5.52,62-35.79,62-35.79s-60.79,28.57-56.89,35.33c.43.75,57.68-33.3,57.68-33.3,1.3,2.25-56.32,30.36-54.54,33.46,0,0,53.26-32.45,54-31.18,1.91,3.31-51.44,29.75-50.45,31.47,0,0,50.68-30,51-29.44,1.24,2.16-50.29,24.94-47.54,29.7.61,1.05,45.14-32,47.7-27.54,0,0-44.43,24-42.58,27.19.92,1.59,42.2-28,43.78-25.28,0,0-43.77,20.85-41.07,25.53,1.09,1.88,40.77-23.54,40.77-23.54,1.05,1.83-36.33,23.26-36.16,23.56,1.24,2.14,36-20.78,36-20.78,2,3.54-35,17.28-32.88,20.93.55.94,33-19,33-19,1.34,2.32-28.86,18.65-28.86,18.65.51.89,29.68-17.13,29.68-17.13l-24.74,17.09s23.8-16.63,25.05-14.46c0,0-24.23,12.33-22.73,14.92.42.73,22.15-15,23.12-13.35.74,1.28-18.26,11.76-17.6,12.9.36.62,17.11-11.5,17.81-10.28.57,1-14.56,10.64-14.56,10.64s14-8.06,14-8.06-9.77,6.57-9.25,7.47c0,0,10.09-6.06,10.19-5.88.23.41-5.85,6.12-5.81,6.19l6.14-3.54c.15.26-2.09,3.28-2,3.4a9.75,9.75,0,0,1,1.46-.84" fill="none" stroke="#00286f" stroke-linecap="round" stroke-linejoin="round" stroke-width="0.7"/><path d="M1.61,264.11s.18-.16.2-.12.31,2,.34,2,3.83-2.84,4.1-2.37c.18.31-4,4.21-3.65,4.79.46.8,8.08-5.21,8.31-4.8L3,271c.25.43,13-7.51,13-7.51L2.25,273.26c.07.13,15.91-9.18,15.91-9.18s-16.71,10.68-15.93,12c1,1.72,20.16-13.59,21-12.13,1.39,2.42-21,14.16-20.76,14.56,1.56,2.7,23.69-17,25.13-14.51C28.3,265.23,3,280.41,3,280.41c.46.8,27.27-20.12,29.17-16.84,1,1.78-29.6,17.91-28.74,19.39,1.16,2,33.23-20.88,34-19.61L2.77,285.8c.34.59,37.77-21.86,37.79-21.82.69,1.19-39.78,19.58-37.31,23.86,2.31,4,39.08-28.63,41.71-24.08.91,1.57-42.75,24.2-41.52,26.34,2.22,3.84,44.86-26.69,45.2-26.1.13.22-46.58,22.86-44.08,27.19C5.88,293.48,52,263.8,52,263.8c.43.75-48.16,30.54-48.16,30.54,2.57,4.45,52.3-33,53.51-30.89,2.94,5.09-55.28,26.77-52,32.43.43.74,56.28-32.5,56.28-32.5.48.84-57.57,32.07-56.23,34.38,0,0,57.1-38.64,59.55-34.38,2.18,3.78-59.8,37.2-59.8,37.2C8.91,307.06,68.46,264,68.46,264S4.13,301,5.37,303.18l68.09-39.31s-68.16,41-67.73,41.72c.68,1.18,69.92-46.65,72.64-41.94,2.43,4.21-74.78,38.73-72,43.57,0,0,72.84-46.19,74.63-43.09C83.28,268,4.42,305,7.07,309.62c5.16,8.94,78.36-48.44,79.74-46,4.83,8.36-84.87,40.18-80.08,48.49,3.5,6.05,80.11-53.81,83.38-48.14,1.59,2.76-82.24,49-81.72,49.88,2.32,4,84.18-56,87.39-50.46,0,0-88.65,51.55-87.67,53.25,5,8.74,91.18-54.8,92.11-53.18,0,0-96,46.65-91.35,54.67,2.72,4.71,93.37-53.91,93.37-53.91,4.57,7.91-93.87,52.57-92.4,55.11,4.64,8,95.2-55.46,95.42-55.09C111.48,274.94,10.06,322,10.06,322c6,10.45,99.1-57.22,99.1-57.22,6.68,11.57-99.07,59.1-99.07,59.1C14.19,331,108.72,267,108.72,267c2.08,3.61-102.36,50.76-97.71,58.81s97.49-58.94,98.64-57c0,0-97.52,58.68-97.46,58.78s94.37-61.83,97.55-56.32c6.07,10.52-103.81,47.3-97.51,58.22C13.5,331.69,106,266,110.09,273,116.49,284.1,12,332.32,12,332.32c.16.28,95.63-59.39,97.44-56.25,5.71,9.9-98.45,54.44-96.19,58.36,0,0,94.22-59.19,96.29-55.59,0,0-99.52,50.18-95.49,57.15,4.41,7.63,94.71-56.08,95.31-55,.45.79-101.14,45.77-94.76,56.82,5.53,9.58,95.71-55.26,95.71-55.26L15.2,340.33c3.72,6.45,91.45-62.1,95.48-55.12,0,0-97.35,51.79-94.3,57.07,4.55,7.88,94-54.28,94-54.28,5,8.71-94.85,53-93.05,56.08,6.12,10.6,88.42-64.64,94.31-54.45.84,1.45-98.13,51.09-94.6,57.19,0,0,90.24-60.89,94-54.3L18,348.82c4.21,7.3,88.74-64.12,94.32-54.46.38.66-93.22,56-93.22,56,2.92,5.05,88.81-61.84,93.38-53.91,3.3,5.72-92.69,55.4-92.69,55.4,2.69,4.65,86.27-63.66,92.27-53.27.36.62-91.82,54.81-91.78,54.88,6,10.44,89.2-58.53,92.24-53.26,3.25,5.63-88.83,53.57-88.83,53.57,2.86,5,89.42-51.63,89.42-51.63,1.63,2.82-90.11,44.6-86.14,51.48,2.57,4.45,86.58-50,86.58-50,3.38,5.85-87.24,43.31-83.37,50,3.33,5.77,78.73-56.3,83.42-48.16,4.82,8.34-80.29,48.22-80.29,48.22l80.06-46.22c4.18,7.24-79.19,40.79-76.1,46.14L114,309.31c4.56,7.91-71.6,43.69-71.6,43.69s68.47-46.11,71.32-41.18c3.32,5.74-70.25,37.5-68,41.48,1.45,2.52,65.92-45.67,69.22-40,0,0-68.11,35.34-65.45,40,2.45,4.25,65.88-38.72,66.17-38.2,2.1,3.64-62.19,37.93-62.19,37.93.44.77,61.44-35.47,61.44-35.47,1.67,2.9-59.17,32.55-57.27,35.84,1.51,2.62,57-37.59,59-34.07.52.9-54.25,34-54.25,34s52.91-31.77,53.44-30.85c0,0-52.51,25.53-49.61,30.56l50.78-29.32s-48.88,27.65-47.65,29.78c.7,1.21,47-27.8,47.32-27.32,0,0-43.79,25.67-42.89,27.23,0,0,43.31-26,43.73-25.25.88,1.53-40.19,25.14-40.19,25.14.21.37,40.3-23.27,40.3-23.27,2,3.53-35.48,23-35.4,23.17,1,1.81,36.27-22,36.75-21.22,1.48,2.56-35.2,18.66-33.65,21.34,1.18,2,32.49-21.18,33.54-19.36,0,0-28.87,18.89-28.78,19,1.24,2.15,27.61-19.39,29.1-16.8.2.34-27.11,13.56-25.32,16.67,1.05,1.82,26.71-15.42,26.71-15.42.14.24-25.13,13.35-23.56,16.08,0,0,22-15.57,23.22-13.41l-17.89,12.75s18.73-13,19.69-11.37l-16.73,11.91c.85,1.47,17.41-10.05,17.41-10.05.37.64-12.28,8.26-11.56,9.5.48.84,11.07-7.55,11.57-6.68,0,0-9.37,6.72-9,7.4.27.47,9.79-6.91,10.33-6,.39.67-5.21,5.37-5,5.65,0,0,4.61-3,4.76-2.75s-.78,2.85-.61,3.15c0,.06,2.15-1.37,2.21-1.27" fill="none" stroke="#00286f" stroke-linecap="round" stroke-linejoin="round" stroke-width="0.7"/><path d="M145.28,158.64a3.06,3.06,0,0,0,.35-.2c.08.13-1,2.39-.92,2.49.16.27,4.24-2.62,4.32-2.49.19.33-6.21,6.19-6.21,6.19.7,1.22,10.15-5.86,10.15-5.86.8,1.38-12.09,9-11.87,9.41,0,0,16.53-10.19,16.81-9.71l-16.93,12s20.52-12.48,20.79-12c0,0-23.11,13-22,14.92S164.07,158,164.66,159c0,0-26.36,16-25.64,17.19,1.15,2,30.34-17.53,30.35-17.52,1.45,2.52-31.82,17.89-30.77,19.71,2.17,3.76,32.73-23,34.53-19.93.48.84-36.28,20.71-35.08,22.8,1.7,2.94,36.66-26.22,38.85-22.43.05.09-41,24-40.33,25.18.37.64,43.9-26.71,44.49-25.69,0,0-46.3,24.63-44.36,28,.74,1.29,45.94-31,47.88-27.64,2.32,4-49.11,30-48.78,30.58.52.9,49.82-35.39,52.69-30.42,2,3.54-53.17,33.14-53.17,33.14,1.34,2.33,55-36.19,56.93-32.87l-58.49,35.71c1.89,3.28,60.41-40.68,62.92-36.33,4.35,7.53-67.5,32.14-63.49,39.07,3.59,6.22,62.87-45.52,66.87-38.61.15.26-69.07,36.52-66.51,40.94,2.3,4,71.87-41.5,71.87-41.5,3.67,6.35-75.2,40.16-72.85,44.23.61,1.06,73.16-49,76.09-43.93,1.65,2.86-77.9,44.75-76.79,46.67,0,0,76.23-54,80.57-46.52,2.48,4.3-81.51,45.24-80,47.91,3.38,5.86,79.57-55.46,83.7-48.32,0,0-85.92,47.64-84.21,50.62s82.08-60,87.54-50.54c1.65,2.87-89.42,52.16-88.81,53.21,0,0,91.92-53.31,92-53.13,0,0-96.41,45.86-91.39,54.55,4.45,7.7,90.68-59.49,93.77-54.14.74,1.28-96,56.17-95.09,57.7,2.78,4.82,93.5-69.68,100.29-57.9,2,3.5-105.92,49-99.86,59.46,3,5.2,103.43-59.71,103.43-59.71,2.6,4.5-104.12,62.59-104.12,62.59,6.43,11.15,103.37-71.18,108.35-62.55,1.18,2-108.32,64.65-108.32,64.65S238.5,152,242.15,158.31l-113.63,68.2c7.26,12.58,110.32-81.73,118.13-68.2,6.85,11.86-117.88,69.6-117.41,70.41,3.53,6.12,116.05-73.17,118.72-68.54,5.72,9.91-124.26,64.24-119.82,71.93,2.69,4.67,116.21-74.23,119.3-68.88,0,0-124.4,60.66-118.32,71.18,1.09,1.89,115.57-73.52,118.51-68.42,1.07,1.85-121,68.84-119.5,71.46.23.41,118.53-68.43,118.53-68.43,3.51,6.08-122.08,64.32-118.58,70.39,5.8,10,114.48-78,119.64-69.08,0,0-127.13,57-119,71.08,4,7,118.3-68.3,118.3-68.3.19.33-121.75,65.15-118.67,70.48,1.29,2.24,119.06-68.74,119.06-68.74,5.48,9.49-123.25,65.72-119.83,71.65C135,259.32,248,176.87,248.08,176.93c4.38,7.59-124.53,60.56-118.51,71,0,0,114.94-73,117.81-68L131.85,248.66c.34.59,113.1-71.75,115.89-66.91,6.33,11-110.82,66.77-110.82,66.77s107.22-67.67,109.72-63.35c1.71,3-107.87,58.59-105.48,62.72L246.59,187c5,8.64-101.32,60.89-101.32,60.89.73,1.26,102.33-59.08,102.33-59.08,3.34,5.79-102.64,52-98.4,59.39,0,0,91.75-66.63,97.67-56.39.2.35-95.12,55.27-94.48,56.38,1.67,2.89,94.65-55,94.82-54.75s-95.54,47-90.83,55.14c2.88,5,84.83-63.13,91-52.51,0,0-87.21,51-86.32,52.52,1.48,2.56,87-50.21,87-50.21,2.45,4.24-86.34,42.21-82.18,49.42,1.15,2,78.6-52.25,81.57-47.1,5.35,9.26-76.9,47.1-76.9,47.1s75.54-46.74,76.89-44.39c4.3,7.44-74.15,44.88-74.15,44.88,3.85,6.67,71-49.38,74.66-43.1,4.5,7.79-72.56,40.13-71,42.9,2.81,4.86,70.66-41.44,70.94-41,0,0-70.49,35.52-67.24,41.14,2.38,4.12,66.56-38.43,66.56-38.43s-62.87,35.35-61.36,38,61.91-35.74,61.91-35.74c1.92,3.33-58.62,36-58.62,36,3.09,5.35,56.67-37,58.53-33.79,2.48,4.3-58.1,27.82-54.65,33.8.47.81,52.65-33.58,54-31.19,2.91,5-52,25.79-49,31.09,0,0,46.48-34.51,49.81-28.76,1.29,2.24-48.5,24.07-45.68,28.95.86,1.49,44.83-28.46,45.95-26.53.16.27-43.43,22.89-41.4,26.42l40.94-23.64c1,1.71-36.93,22.32-36.24,23.5,1.77,3.06,35.45-20.47,35.45-20.47,1.58,2.73-32.41,19.67-31.69,20.9.11.2,31.71-19.27,32.13-18.55s-26.66,17.78-26.49,18.07c0,0,25.07-16.76,26.05-15,.83,1.44-22.6,13-21.36,15.19.8,1.38,21.89-12.64,21.89-12.64.23.39-18.9,11.79-18.41,12.64.8,1.39,16.56-12.38,17.78-10.27.83,1.45-14.46,10.46-14.44,10.5.72,1.24,14.2-8.51,14.34-8.28.51.89-9.87,7.85-9.87,7.85.68,1.18,9.46-7.16,10.2-5.89.46.79-7.18,5.31-6.9,5.8.43.74,7.36-4.61,7.52-4.34,0,0-5,4.81-4.91,4.88.31.53,4-2.77,4.18-2.41,0,0,.13,2.28.15,2.31s.34-.21.35-.2" fill="none" stroke="#00286f" stroke-linecap="round" stroke-linejoin="round" stroke-width="0.7"/><path d="M19.76,159.11a2.73,2.73,0,0,0,.42-.24c.23.41-1.83,3.6-1.69,3.84.41.71,7.22-5,7.6-4.39.16.27-9.27,7.58-9.15,7.8,0,0,11.56-8.5,12.35-7.13.56,1-14.19,8.72-13.41,10.07s17.26-12.21,18.23-10.53c0,0-18.58,13.08-18.49,13.23,0,0,21.81-14.17,22.5-13,0,0-25.56,14.46-24.23,16.77s28.32-16.79,28.51-16.46c.81,1.4-30.54,16.83-29.24,19.09.49.85,33.07-21.89,34.28-19.79,2.35,4.06-37.64,18.9-35.18,23.15.73,1.27,38.54-25.88,40.11-23.16,0,0-41.94,22.89-40.37,25.61,2.28,3.95,44.24-25.54,44.24-25.54.74,1.29-48,25.37-45.88,29,.39.67,48.64-31.1,49.95-28.84,2.11,3.65-52,29.92-50.88,31.81,3.67,6.36,54.16-33.41,55.08-31.8l-54.66,34c3.74,6.49,58.3-34.79,58.79-33.94L8.77,195.21C10,197.29,68,151,72.33,158.51c3.77,6.54-65,39.85-65,39.85.83,1.43,65-46.69,69-39.83,0,0-73.58,34.78-69.2,42.37.57,1,69.75-48.3,73.23-42.28,0,0-77.05,37.59-73.19,44.27,0,0,73.53-50.54,77-44.47,5,8.74-83.13,39.07-78,47.88,4.09,7.08,83-47.94,83-47.94,3.92,6.8-84.46,48.9-83.67,50.25,5.57,9.65,82.95-55.46,86.22-49.78,0,0-88.83,46.91-86.06,51.7,0,0,85.15-61.73,90.59-52.31,4,6.86-91.72,54.51-91.53,54.85,4.41,7.64,93.22-55.62,94-54.27.64,1.11-93.34,56.11-93.34,56.11l97.52-56.31c.33.57-103.39,50.73-98.43,59.32,5.32,9.21,99.25-63.41,101.89-58.83,0,0-103.2,58.47-102,60.62C7.47,225,110,157.17,110.65,158.38c6.28,10.87-109.29,61-107.47,64.18.29.51,105.67-72.39,110.6-63.85C121,171.18,0,217.91,3.6,224.19l113.05-65.27c7.43,12.87-118,59.8-113.37,67.91.14.24,111-81.29,118.49-68.41,2.36,4.08-119.67,69.08-118.66,70.82C10.88,242.7,117.88,146.55,125,158.86,131,169.29-1.54,225.59,2.14,232,4.37,235.82,118.2,150,124.66,161.23c0,0-124.81,66.57-121.59,72.15,0,0,115.64-78.06,120.53-69.59,2,3.51-123,70.62-121.9,72.46,3,5.16,119.44-73.7,121.49-70.14C129.1,176.33-4.62,226.72,1.9,238c0,0,114.7-78.34,119.95-69.25,0,0-126.82,57.52-119,71,.38.66,109.85-82.13,118-68.1C121.45,172.85-.16,237.86,2.26,242c0,0,113.57-76.14,118.15-68.21C123,178.3.21,242.45,1.38,244.47c8.05,13.94,118-68.12,118-68.12L1.55,247.19c7.74,13.41,117-68.53,117.42-67.79,0,0-118.57,64-115.65,69.06,4.49,7.78,114.28-67.63,115-66.39.5.87-115.6,57.1-110.3,66.29,5.5,9.53,109.28-63.09,109.28-63.09,6.33,11-110,55-105.47,63,1.76,3.05,104.79-60.5,104.79-60.5,2.38,4.12-101.63,59-100.8,60.43.26.46,100.24-59.5,100.94-58.28,1.88,3.25-103.43,47.91-97.36,58.43,5.92,10.25,94-59.65,96.31-55.61C121.64,203,21.32,246,22.62,248.26c3.76,6.52,92.84-53.6,92.84-53.6,5.55,9.61-92.71,48.68-89.84,53.65.55.94,86.47-56.36,89.26-51.53,0,0-85.4,49.77-84.58,51.2,0,0,83.26-50.06,84.13-48.57,4.31,7.46-84.5,44.55-81.83,49.17.17.3,80.06-48.1,80.87-46.69,3.1,5.37-80.34,38.87-76.13,46.16l75.8-43.76c.32.56-72.93,41.57-71.67,43.76.67,1.16,71.4-41.22,71.4-41.22,3.77,6.54-67.49,41.25-67.49,41.25,1.68,2.92,65.63-41.29,67.1-38.74,0,0-63.51,38.81-63.21,39.32,0,0,61.57-37.68,62.49-36.08,0,.06-57.34,34.83-57.1,35.25,0,0,56.11-35.85,57.61-33.26,1.06,1.84-54.53,32.41-53.71,33.83,1.47,2.55,53.4-31,53.48-30.88S60.56,244,62.91,248c3.33,5.77,45.36-32.83,48.24-27.85,2.55,4.41-46.25,25-44.46,28.14.44.76,41.54-29.74,44-25.42L71.07,248.63c1,1.8,39.61-23.44,39.85-23,1.64,2.85-36.2,20.12-34.8,22.53,1.7,2.94,33.53-22.5,34.89-20.14.33.58-32.86,18.06-31.62,20.21l31.27-18.06s-26.9,17.68-26.58,18.23l25.5-14.72c.16.28-21.36,13.89-20.86,14.77.33.58,20.86-12.83,21.2-12.24.24.42-17.52,11.44-17,12.29l16.32-9.42c.23.4-12.47,8.58-12.28,8.92.57,1,11.79-8.57,12.55-7.25,0,0-8.74,7-8.68,7.12.48.83,9.37-5.57,9.44-5.45.18.3-7.52,6.24-7.52,6.24.32.56,5.55-4,5.91-3.41l-.76,2.7s1.85-1.31,2-1.13" fill="none" stroke="#00286f" stroke-linecap="round" stroke-linejoin="round" stroke-width="0.7"/><path d="M265.12,15.1s.16-.1.17-.1a20,20,0,0,0-.24,2.76s.87-.52.88-.51a29.9,29.9,0,0,0-.78,2.89s3.74-2.47,3.88-2.24-4.71,4.81-4.71,4.81S270,19.44,270,19.46c.38.66-4.82,4.38-4.75,4.5S270,20.52,270.29,21c.44.77-6.36,4.95-6,5.64s8.9-5.14,8.9-5.14c.53.92-9.33,6.07-8.75,7.08l8.87-5.12s-8.85,7.47-8.76,7.62c.73,1.26,11.4-7.26,11.69-6.75.76,1.32-11.46,7.49-11,8.37.74,1.28,10.83-7.11,11.2-6.47s-12.06,8.89-12.06,8.89c.1.17,13-8.74,13.51-7.8.08.14-13.14,10.07-13.14,10.07.42.72,15.36-8.87,15.36-8.87s-16.84,10.09-15.91,11.7c.4.7,16.62-11.75,17.55-10.13.28.48-17.31,12.28-17.15,12.57.28.48,18.12-10.92,18.32-10.57.72,1.24-19.12,13.72-19.12,13.72l21.26-12.27s-21.88,11.92-20.52,14.27c1.19,2.06,21.77-14.38,22.55-13,0,0-24,12.88-22.46,15.61.5.86,23.84-13.84,23.87-13.78s-24.18,16-24.07,16.22c0,0,23.9-15.59,24.68-14.25,0,0-25,16.87-24.87,17.07,1.57,2.71,26.15-16.47,26.74-15.44.79,1.37-28,15.57-26.73,17.71.27.47,28-16.15,28-16.15s-27.46,17.86-27.46,17.86S293.42,40,294.79,42.39c0,0-31.32,17.56-30,19.84.25.43,28.89-21,30.78-17.77.69,1.19-32.58,17.5-31.13,20,1.82,3.15,32.34-20.08,32.95-19,0,0-33.7,20.14-33.19,21,1,1.74,32.09-21.42,33.34-19.25.11.2-35,17.5-32.75,21.37,2.39,4.14,33.66-20.7,34.21-19.75.45.78-34.23,22.18-34.23,22.18,1,1.77,34.87-24,36.53-21.09,1,1.76-37.16,23.62-36.89,24.1.91,1.57,38.25-22.17,38.29-22.11,1.73,3-39.48,23.11-38.75,24.39,2.54,4.4,38.24-26.54,40.17-23.19,1.59,2.76-41.75,20.67-39.51,24.55.27.47,40-23.1,40-23.1.3.51-40.71,24.29-40.05,25.43,2.79,4.83,39-27.76,41.29-23.84,1.43,2.48-44.37,22.22-41.84,26.6,1.72,3,43.46-26,43.86-25.32,0,0-42.53,26.77-42.45,26.91l43.51-25.12c2.37,4.1-45,27.8-44.62,28.45,2.29,4,46.15-26.68,46.16-26.65,1.21,2.09-49.4,24.07-46.31,29.41,1,1.71,47.41-27.48,47.46-27.4,2,3.45-47.2,29.12-47.2,29.12,1.6,2.77,48.56-28,48.56-28,1.7,2.94-51.07,26.45-48.88,30.24,0,0,50.06-29.69,50.4-29.1,1.24,2.15-49.56,30.61-49.56,30.61L314.9,67c.78,1.36-50.39,30-49.92,30.84.27.47,50.33-32,51.59-29.79,3.28,5.69-51.83,31.36-51.37,32.16,2,3.55,50.11-33.26,52-30,1.66,2.87-52.83,33.14-52.83,33.14.66,1.14,52.21-34.69,54.18-31.28,0,0-55.68,28.23-53.1,32.7,1.29,2.23,50.91-36.1,53.81-31.07,0,0-54.71,33.8-54.71,33.8l57-32.93c1.63,2.82-60.53,29.1-57.25,34.79,0,0,53.92-39.16,57.4-33.14,0,0-60.6,28.92-57.1,35C268,117,320.12,73.13,322.74,77.67c.83,1.43-61.87,30.55-58.62,36.17,0,0,58.17-36.89,59.6-34.41C326.78,84.73,261,109.84,264.6,116c0,0,59.94-37.54,61.21-35.34,2,3.52-64.23,32.08-61.18,37.37,2.47,4.27,59.19-38.58,61.1-35.27,3.25,5.63-60.33,37.32-60.33,37.32L328,83.91l-63.44,39.18c2.77,4.8,62.51-39.91,64.17-37,1,1.77-67.56,33.27-64.1,39.26,3.57,6.19,61.8-45.52,66.06-38.14,3.41,5.9-66.09,39.24-65.72,39.89,2.08,3.61,64.89-41.2,66.51-38.4s-66.64,40-66.37,40.48l66.4-38.34c4.61,8-68.54,39.65-67.4,41.61.78,1.35,69-39.85,69-39.85,1.68,2.9-70.49,39.49-68.72,42.54,0,0,67.56-45.19,70.24-40.55,4.54,7.86-71.06,40.47-69.82,42.62,0,0,67.46-47.87,71.32-41.18,1.23,2.12-73.82,40.37-71.74,44,4.44,7.68,73.07-42.19,73.07-42.19,2.06,3.57-70,41.71-69.65,42.24,1.68,2.9,69.77-40.28,69.77-40.28,3.94,6.83-67.41,38.07-65.81,40.85,1.92,3.32,66.36-41.41,67.7-39.09.59,1-66.53,33.43-63.44,38.77,0,0,62.43-38.91,63.67-36.76,0,0-63.93,29.42-59.84,36.51,3.13,5.42,58.77-38.91,60.92-35.17,2.47,4.28-58.23,35.82-58.23,35.82,3.5,6.06,57.54-39,60-34.65L288.24,140.2C291.65,146.1,342.9,106,344,108c1.75,3-51.53,32.12-51.53,32.12.66,1.14,49.44-33.78,51.71-29.85L297,140.31s46.87-32,49-28.3c.2.35-46.78,25.78-45.19,28.53,2.29,4,44.29-30.11,46.25-26.7.22.38-43.81,23.11-41.8,26.6,2.32,4,42.43-24.5,42.43-24.5s-40.14,22.85-39.17,24.54c.05.09,38.34-25.82,39.94-23.06,1.22,2.11-37.11,21.46-36.19,23.05.34.59,36.92-22.67,37.51-21.66,2.26,3.92-34.35,18.91-33,21.29l33.47-19.32c.55,1-29.84,16.7-28.44,19.12,0,0,27.94-19,29.2-16.86,0,0-27.25,14.46-25.61,17.29.41.71,25.05-18.51,26.81-15.48.35.61-22.9,15-22.9,15,.19.33,22.71-16.95,24.37-14.07.26.45-21.56,14-21.33,14.45.73,1.27,21.76-12.56,21.76-12.56,1,1.65-19,11.61-18.22,13,.58,1,18.54-11.57,18.91-10.92.87,1.51-16,8.59-15,10.42.51.89,16-9.78,16.24-9.38.53.92-12.15,8.63-11.85,9.14.58,1,11.19-7.92,11.82-6.83.34.58-8,6.59-7.74,7.12s8.41-5.76,8.8-5.08c0,0-6.32,4.8-6,5.43s6.69-4,6.76-3.9-1.79,3.59-1.74,3.67c.15.26,2.53-1.76,2.66-1.53,0,.06-.27,1.92-.27,1.92a6.1,6.1,0,0,1,.6-.35" fill="none" stroke="#00286f" stroke-linecap="round" stroke-linejoin="round" stroke-width="0.7"/><path d="M246.21,16c0,.08.86-.55.88-.51.39.67-10.29,6.75-9.61,7.93.2.35,8.91-6.09,9.32-5.38,0,0-16.47,9.81-15.58,11.35.3.52,16.23-9.67,16.36-9.44,0,0-22,12.79-21.26,14.14,1.41,2.44,20.22-13.57,21-12.15,1.67,2.89-27,16.45-26.5,17.41,1.66,2.88,25.08-18.15,26.67-15.4,1.83,3.18-34,17.79-32,21.26,1.28,2.21,30.24-22.23,32.31-18.65L212.09,49c2.11,3.65,34.57-21.2,35.11-20.27.35.6-41,22-39.27,25,.82,1.43,39.55-24.11,40.1-23.15,1.91,3.31-45.84,23.4-43.74,27.05,2.88,5,40.46-29.54,43.14-24.91,2.14,3.7-46.81,28.79-46.48,29.36S245.62,30.71,248,34.9c3.33,5.78-51.53,32.29-51.53,32.29s48-35,51.14-29.53c1.65,2.87-55.71,30.64-53.94,33.7,0,0,53.58-32,54.06-31.21,2.91,5-58.73,32.85-57.32,35.31.6,1,54.89-37.69,57.48-33.19.79,1.36-59.1,36-59.1,36,4,6.94,58.36-33.83,58.42-33.73.7,1.21-65.76,31.22-61.78,38.11.5.86,59.89-37.94,61.35-35.42L182.63,86.43c4,6.93,61.69-43,64.9-37.47,0,0-69.43,36.21-67,40.48,2.69,4.66,66.73-38.53,66.73-38.53.31.54-69.42,42.4-69.42,42.4,3.62,6.27,68.62-40.61,69.05-39.87,0,0-76.42,37-72.22,44.25,2.91,5,72.38-41.79,72.38-41.79,3.94,6.82-78.59,37.28-74.21,44.85.57,1,74.58-43.06,74.58-43.06s-78,45.36-76.92,47.21c1.52,2.63,73.23-50.16,76.64-44.25,3.18,5.5-82.57,42.88-79.32,48.52,4.83,8.37,78.83-47.71,79.78-46.06,5.33,9.23-82,46-80.59,48.5,2.52,4.36,75-56.07,80.51-46.48,3.51,6.08-85.83,47.9-83.91,51.23,3.51,6.09,84.45-48.76,84.45-48.76,4.55,7.87-86.31,48.66-85,50.9,5,8.59,84-48.51,84-48.51S155.23,111.78,161,121.74c4,7,83.68-54.53,86.37-49.87,6,10.41-90.5,49.2-87.93,53.65,5.85,10.13,83.91-56.74,87.5-50.52,2.73,4.73-88.8,53.72-88.8,53.72S245,74,247,77.44c3.1,5.37-92.28,54.74-91.76,55.64,4,6.91,85.58-64,91.9-53.06,4.75,8.23-95.2,54.1-93.61,56.85,5.22,9,94.31-54.8,94.46-54.54,3.33,5.77-98.69,49.39-94.63,56.42,5.81,10.06,90.31-62.19,94.66-54.65,1.57,2.72-97.86,48.85-93.71,56,.45.77,90.1-57.42,92.44-53.37,4,7-89.95,50.6-88.4,53.28,5.44,9.42,84-60.05,89-51.4,5.33,9.23-86.15,51.56-86.15,51.56s79.88-59.5,85.67-49.46c0,0-81.41,48.31-81,49.11,0,0,80.41-48.37,81.25-46.91,5.12,8.87-83,38.63-77.72,47.73,3,5.26,73-53.31,77.82-44.93,2,3.4-78.13,36.8-73.41,45,3.83,6.63,73.3-42.32,73.3-42.32,4.64,8-74.75,34-70,42.19C181.39,147.92,247.4,100,247.4,100c2.59,4.48-67.22,40.7-67.22,40.7,1.44,2.49,63.59-46.81,68-39.24,3.38,5.85-66.07,35-63.88,38.75l63.61-36.72c1.8,3.12-62.32,31.8-59.38,36.89s58.34-33.79,58.39-33.71l-53.78,33.89,54-31.19s-50,29.54-49.09,31.18c1.13,2,49-28.26,49-28.26,3.09,5.35-44.21,28.25-44.21,28.25,2.83,4.91,42.69-28.52,44.37-25.62,2.52,4.37-42.32,21.1-39.73,25.6,2.29,4,37.42-27,39.77-23,2.2,3.81-34.73,22.93-34.73,22.93L247.85,120c1.62,2.81-30.73,20.44-30.73,20.44,1.88,3.26,27.92-20.23,29.7-17.15,0,0-26.36,13.85-24.78,16.6,0,0,24.56-16.37,25.51-14.73.74,1.28-23.21,15.08-23,15.48.39.68,22-13.31,22.24-12.84l-18.26,12.78c.63,1.1,18.47-12.66,19.33-11.16,1,1.72-15.2,9-14.38,10.46.1.17,14.18-8.89,14.48-8.36l-11.35,8.32c.15.25,10.28-6.63,10.58-6.11.47.82-8.47,5.54-8,6.36.23.4,7.8-4.5,7.8-4.5l-4,4.49c.08.14,4.16-3.14,4.48-2.59.07.12-1.83,2.91-1.78,3s2.17-1.44,2.25-1.3" fill="none" stroke="#00286f" stroke-linecap="round" stroke-linejoin="round" stroke-width="0.7"/><path d="M273.08-.09a2.52,2.52,0,0,1,.28-.16c.11.19.86,1.64.86,1.64.09.15,1.43-.82,1.43-.82L275.31,3c.12.2,3.93-2.27,3.93-2.27.21.37-1.38,3.59-1.38,3.59.19.33,5.62-3.24,5.62-3.24.31.54-4.54,4.71-4.38,5,.43.74,7.68-4.43,7.68-4.43.34.59-6.44,4.83-6,5.62.35.61,9.21-6.33,9.65-5.57C290.59,2,283,8.84,283,8.84c.4.69,10.85-7.55,11.41-6.59.3.52-10,7.82-10,7.82.84,1.46,13.28-7.7,13.3-7.68.29.5-12.55,8.37-11.86,9.56,0,0,15.42-9,15.48-8.94.85,1.47-13.88,8.84-13.39,9.69.09.16,14.39-10.61,15.39-8.88.43.74-14.4,9.25-13.68,10.5s16.55-11.1,17.22-9.94c.89,1.54-15,10.89-14.8,11.16.7,1.2,17.4-12.41,18.42-10.64,0,0-19,11-18.2,12.26.12.21,19.8-11.43,19.8-11.43L294.67,18c1,1.77,19.52-12.16,19.9-11.49s-19.59,10.89-18.35,13,21.24-12.83,21.48-12.4c0,0-20.47,14.42-20.42,14.53.24.41,23.65-14,23.78-13.73.3.53-23.69,12.46-22.09,15.23,0,0,24.86-15.7,25.44-14.69.75,1.3-24.4,16-24.4,16,1.2,2.08,25.79-14.89,25.79-14.89.65,1.12-23.38,16.32-23.38,16.32s27-15.71,27-15.62c.3.51-27.2,15.21-26.12,17.08,1,1.68,27-17.62,27.86-16.09,1.72,3-25.86,16.87-25.86,16.87.93,1.6,27.4-17.73,28.23-16.3,1.61,2.78-27.9,16.07-26.9,17.8,2,3.47,29.62-17.47,29.78-17.19,1.65,2.86-30.3,18.11-29.67,19.21,1,1.76,31-18.44,31.26-18l-29.6,19c.52.9,31.15-21.72,32.77-18.92,0,0-32.71,17.36-31,20.28,0,0,32.25-22.13,33.77-19.5,1.4,2.42-32.81,18.83-31.74,20.67,0,0,31.19-22.89,33.3-19.23,0,0-34.59,19.47-33.25,21.79,2.41,4.17,35.31-23,36.45-21,.76,1.32-35.45,21.25-34.92,22.17,0,0,34.11-24.12,36-20.8,2.08,3.61-34.18,21.6-34.18,21.6.74,1.27,36.44-21,36.44-21,2.47,4.28-38.52,18.54-36,22.82l39.1-22.57L318,42.72c2,3.4,38.21-22.15,38.25-22.09l-37.62,24c2.06,3.56,38.45-26.77,40.43-23.34,2.58,4.46-41.39,20-38.93,24.28.33.57,40-24.79,40.73-23.52,0,0-41.09,20.53-38.94,24.25,2.29,4,38.53-27.88,41-23.65.93,1.61-41.82,21.27-39.4,25.46,0,0,41.59-25.33,42.16-24.34s-43,23.35-41.23,26.37c0,0,41-28.12,42.94-24.79,1.6,2.77-43.06,24.39-42,26.24.33.57,43.52-27.63,44.61-25.75,3,5.25-44.62,24.63-43.17,27.13,0,0,42.72-29.66,44.89-25.91,2,3.48-45.79,22.87-43.25,27.27,1.42,2.45,45.23-26.4,45.35-26.18,1,1.8-45.62,27.07-44.71,28.65C331,60,375.45,28.25,376.24,29.62c2.76,4.78-46.7,26.69-45.78,28.28.38.66,46.79-28.3,47.35-27.34C380.37,35,330.92,58.89,331.58,60c3.08,5.33,47.05-30.17,48.35-27.92L334.21,61s46.61-29.38,47.68-27.53C383.33,36,333.94,62.43,334.25,63c2.43,4.2,47.3-33.25,49.87-28.79,0,0-51.09,23.62-47.8,29.33,2.09,3.62,49.82-29.4,50.1-28.92,0,0-51.26,29.71-50.21,31.54.45.78,49.47-33.78,51.73-29.86,2.47,4.27-50,30.61-50,30.61,1.84,3.19,49.79-32.58,51.45-29.7.2.34-53.07,27.44-50.8,31.36C341,72.71,389.07,33.69,391.54,38S337.1,64.48,340.17,69.8c0,0,49.7-35,52.42-30.26,1.17,2-51.24,32.1-51.24,32.1,2,3.54,54-31.2,54-31.2.72,1.24-52.77,31.3-52.19,32.29,1.21,2.1,51-35.49,53.61-31,0,0-56.45,26.69-53,32.61.78,1.34,51.2-36.86,54.36-31.38L345.06,75.42s53.38-32,53.91-31.13c.44.76-56.93,26.49-53.28,32.81,2.63,4.56,55.41-32,55.41-32,1.68,2.92-55.67,33.54-55.17,34.42,2.38,4.12,54.17-40,57.94-33.45,1.82,3.15-55.41,34.63-55.41,34.63S401.62,42,405.1,48c0,0-58.42,32.19-56.91,34.81,3.11,5.39,57.63-36.89,59.2-34.18.05.09-57.68,36-57.68,36,3.52,6.09,58.56-34.1,58.68-33.88,3,5.28-56.51,34.84-56.51,34.84,3.88,6.72,58-33.47,58-33.47S350,83.71,352.33,87.71c0,0,58.82-36.57,59.95-34.61.79,1.36-58.45,36-58.45,36s58.64-38.4,60.61-35c1.2,2.07-60.11,36.56-59.8,37.11,3.48,6,60-37.58,61.25-35.36,0,0-60.58,34.91-59.41,36.93,2,3.39,57.61-43.16,61.9-35.74.69,1.19-65.94,31.91-62,38.67,2,3.53,60.79-40.89,63.3-36.54.9,1.57-60.85,37.35-60.85,37.35C360.47,99.46,417,55.07,420.39,61c4.26,7.38-66.07,30.75-62,37.86,2.42,4.19,62.27-41.9,64.85-37.44,2,3.44-66.57,33.67-63.59,38.83,3.69,6.38,63.73-36.8,63.73-36.8.64,1.11-63.09,38.74-63.09,38.74s63.27-41,65.21-37.65c.78,1.35-68.53,31.94-64.09,39.64.05.09,60.86-45.46,65.33-37.72,1.56,2.71-63.36,38.64-63.36,38.64,1.69,2.93,62.9-42.09,65.4-37.76,0,0-66.09,37.17-64.51,39.91,1.42,2.46,65.11-38.86,65.66-37.91,0,0-68.19,33.44-64.72,39.45,0,0,64.85-41.71,66.7-38.51.17.3-66.11,38.74-65.54,39.73,3.32,5.75,66.76-38.54,66.76-38.54,3.4,5.89-68.17,39.07-67.2,40.73,2.18,3.77,64.43-47.09,68.72-39.67,0,0-68.54,37.4-66.38,41.14,2.36,4.09,65.41-43.95,68.08-39.31,3.58,6.2-70.53,36.12-67.43,41.49,1,1.68,64.27-46.66,68.41-39.49,2.43,4.21-72.11,35.41-68.66,41.38,4.48,7.77,70.77-40.86,70.77-40.86,4.88,8.46-72.74,37.46-69.79,42.58,4.53,7.85,66.23-47.17,70.1-40.47,3.61,6.25-70.8,38.62-68.87,42,2.53,4.38,67.45-46.57,70.75-40.85,2.6,4.51-70.43,42-70.08,42.65,4.76,8.24,66.21-48.53,70.67-40.8,2.92,5.06-72.51,38-69.9,42.52,2.42,4.19,67.89-49.14,72.2-41.68,0,0-74,37.23-70.56,43.25.71,1.23,71.26-41.82,71.55-41.31,1.6,2.78-71.27,43.92-71.27,43.92,2.08,3.6,71-46.16,73.24-42.29,0,0-74,41.12-72.4,43.89,2,3.52,72.74-42,72.74-42s-77.09,35-72.12,43.64c2.57,4.45,73.58-42.48,73.58-42.48s-73.06,43.2-72.72,43.79c1.61,2.8,73.57-43.77,74.13-42.8,0,0-76.08,38-72.37,44.39C380.06,137.67,452,92.21,452,92.21c3,5.19-78.14,37.66-73.81,45.17,2,3.55,70.93-51.92,75.68-43.69,2.29,4-78.49,37.8-74.26,45.13C382,143,450,88.45,454.2,95.78c2.77,4.8-72.83,44.44-72.83,44.44,4.22,7.3,74.51-44.64,75.21-43.42,4.93,8.54-71.29,41.76-70.42,43.27,0,0,68.13-48.49,72.1-41.62,2.24,3.87-68.52,41.94-68.52,41.94,1.79,3.1,68.29-42.16,69.47-40.11.67,1.16-67.81,35.55-65.23,40,2.78,4.82,66.17-38.89,66.46-38.37,1.13,2-62.48,38.41-62.48,38.41.5.87,59.92-43.72,63.87-36.88.85,1.48-62.06,31.3-58.86,36.83,0,0,56-41.6,60-34.65,3.09,5.35-59.17,28.05-55.56,34.3,3,5.13,54.84-33.86,55.79-32.21,1.81,3.14-55.87,26.94-52.56,32.66,0,0,53-35.37,55.09-31.81,2.89,5-52.3,32.16-52.3,32.16.78,1.34,52.72-30.44,52.72-30.44,2.3,4-51.11,27.05-49.22,30.34,0,0,46-34,49.24-28.43,1,1.71-44.08,27.44-43.92,27.72.05.09,43.69-29.6,45.58-26.32,1.43,2.47-42,26.38-42,26.38,1.48,2.56,41.39-29.25,43.71-25.24,1,1.67-39.22,25.14-39.22,25.14S468.24,114.1,469.92,117s-38.1,21.49-36.92,23.53c0,0,36.55-24.94,38.21-22.06.81,1.4-35.67,18.18-33.44,22s33.76-21.36,34.56-20c0,0-31.6,16.75-29.94,19.63,1,1.81,30.41-17.56,30.41-17.56s-27.92,15.55-26.75,17.58,27.2-20.2,29.14-16.83c.73,1.27-26.76,14.31-25.18,17,.73,1.27,25.21-14.56,25.21-14.56.21.37-20.49,14.42-20.49,14.42.78,1.35,21.3-12.3,21.3-12.3s-17.88,11-16.94,12.65c.09.15,18.55-12.69,19.4-11.2.18.31-14.1,9.81-13.61,10.67,0,0,14.58-8.42,14.58-8.42.76,1.32-10.08,8.24-10,8.37s10-6.83,10.45-6c.29.5-7.46,5-6.94,5.93.2.35,8-4.72,8.08-4.66.16.28-4.64,5-4.55,5.19.33.57,5.91-3.41,5.91-3.41.17.3-1.71,2.46-1.53,2.78s1.18-.82,1.24-.71l1.13,1.09s.1-.08.11-.06" fill="none" stroke="#00286f" stroke-linecap="round" stroke-linejoin="round" stroke-width="0.7"/><path d="M121.38,38.09s15.09-10.95,16.06-9.27c.25.43-33.35,21.14-33.35,21.14S154,17.25,155.69,20.16c4.34,7.51-62.08,37.77-62,38,3.52,6.1,70.47-48.38,73.8-42.61,3.49,6-84.12,47.81-82.68,50.3,0,0,91.75-58,93.93-54.23C183.64,20,73.28,66.85,76.94,73.21,82.37,82.6,189.4,7.83,189.6,8.17c4.91,8.5-127,57.26-118.87,71.36C75.44,87.68,193.59-.79,197.65,6.25c6,10.46-134.08,75-131.91,78.79,1.84,3.19,139.8-80.71,139.8-80.71,6.52,11.3-145.64,79.63-142.95,84.3C66,94.59,208.76,4.23,208.76,4.23c.15.25-159,74.39-150.37,89.28,0,0,151-100.81,156.9-90.59,0,0-169.88,77.67-159.94,94.89.87,1.52,165.76-95.7,165.76-95.7S47.85,94.47,52.32,102.21c0,0,172.61-106.38,175.52-101.34l-180,106.6S230.37-2,232.15,1C237.27,9.92,34.71,93.67,45,111.53c.42.72,187.72-118.8,192.23-111,12,20.8-194.1,114.69-194.1,114.69C49,125.34,224.19-5.08,231,6.77S27.12,98.43,39.47,119.82C41,122.4,223.27,13.71,223.27,13.71,235.09,34.18,34.67,117.47,37.85,123,46.9,138.66,206.64,3.36,216.24,20c4.88,8.46-181.57,103.16-180,105.89C41.68,135.29,199,5.31,210.51,25.26,220.26,42.14,33.69,130,33.69,130c6.83,11.83,159.13-118.23,170.54-98.46L32.32,132.78C34,135.62,198.56,31.61,200.81,35.5c10.54,18.26-173,93.24-169.27,99.73C41.63,152.7,197.07,39.67,197.07,39.67c8.88,15.38-175.88,84.66-167.6,99C36.57,151,190,41.41,192,44.82c0,0-167,86.52-161.91,95.28l159-91.78c6.62,11.47-159,85.44-155.27,91.83,5.1,8.83,145.94-97.72,151.77-87.62,3.64,6.3-151.65,80.11-147.44,87.41,0,0,140.91-88.44,144-83.13,5.83,10.1-141.28,83.34-141.28,83.34,3.82,6.62,138.54-80,138.54-80C180,61.19,45.75,140,45.75,140l129.4-74.71c2.88,5-132.1,64.16-125.86,75,0,0,119.74-75.81,122.63-70.8,1.44,2.5-122.6,62.32-117.76,70.71C61.59,153,169.55,73.56,169.55,73.56l-112,66.88S165.42,76.77,166,77.81c0,0-107.14,58.17-104.52,62.72L163,81.93c2.1,3.63-99.51,53.15-96.4,58.53,3.71,6.43,89.54-62.15,94.07-54.31,3.51,6.08-91.2,50.61-89.16,54.15C72.07,141.25,158.7,90,158.7,90s-83.22,47.82-82,49.89c3.82,6.63,79.08-45.66,79.08-45.66.67,1.16-78.33,41.35-75.41,46.41,1.49,2.58,68.5-48.08,72.19-41.68,4.36,7.55-69.4,38.61-67.94,41.14,0,0,65.21-40.26,66.34-38.3,3.34,5.78-63.08,36.41-62.09,38.12,2.41,4.17,58.69-37.64,60.32-34.82,2.76,4.78-56.18,35-56.18,35,3,5.19,54.13-31.25,54.13-31.25L97.74,140c.61,1.06,47.59-28.44,48-27.71,2.38,4.12-45.86,24.69-43.91,28.06,1.68,2.91,39.76-26,41.09-23.72,0,0-36.29,23.11-36.07,23.49,0,.09,32.48-22.4,34.06-19.66l-30.83,20c1.73,3,29.58-18.63,30.25-17.47.53.92-25.48,15.13-24.48,16.87,1.2,2.08,20.52-14.83,21.81-12.59,0,0-19.18,12-18.63,12.91.86,1.48,15.92-11.51,16.92-9.77,0,0-13.71,9.33-13.29,10s12-8.79,12.8-7.39l-8.7,7c.2.34,7.19-4.94,7.53-4.35.12.21-3.82,3.85-3.57,4.29.1.18,1.85-1.1,1.87-1.08" fill="none" stroke="#00286f" stroke-linecap="round" stroke-linejoin="round" stroke-width="0.7"/></svg>