<svg id="Capa_1" enable-background="new 0 0 512.014 512.014" height="512" viewBox="0 0 512.014 512.014" width="512" xmlns="http://www.w3.org/2000/svg"><g><path d="m238.189 432.4c-4.713.317-9.509.479-14.254.479-115.207-.001-208.935-93.729-208.935-208.936s93.728-208.936 208.936-208.936 208.936 93.728 208.936 208.936c0 18.961-2.539 37.751-7.546 55.849-1.104 3.992 1.236 8.124 5.229 9.229 3.992 1.105 8.124-1.236 9.229-5.229 5.367-19.4 8.089-39.536 8.089-59.849 0-59.815-23.293-116.051-65.589-158.346-42.298-42.296-98.533-65.59-158.348-65.59s-116.051 23.294-158.347 65.59c-42.296 42.295-65.589 98.53-65.589 158.346s23.293 116.051 65.589 158.346c42.295 42.296 98.531 65.589 158.346 65.589 5.08 0 10.215-.172 15.263-.513 4.133-.278 7.257-3.854 6.979-7.987-.279-4.132-3.841-7.262-7.988-6.978z"/><path d="m404.398 262.625c4.087.701 7.958-2.046 8.657-6.128 1.826-10.68 2.752-21.633 2.752-32.554 0-105.798-86.073-191.871-191.871-191.871s-191.872 86.073-191.872 191.871 86.073 191.871 191.871 191.871c12.011 0 24.037-1.119 35.742-3.325 4.07-.767 6.748-4.688 5.981-8.759-.767-4.07-4.686-6.748-8.759-5.981-10.792 2.034-21.882 3.065-32.964 3.065-97.527 0-176.871-79.344-176.871-176.871s79.345-176.871 176.872-176.871 176.871 79.344 176.871 176.871c0 10.077-.854 20.179-2.537 30.026-.699 4.083 2.045 7.959 6.128 8.656z"/><path d="m507.78 465.158-100.482-174.04c-5.646-9.778-15.757-15.616-27.048-15.616s-21.403 5.838-27.048 15.616l-100.482 174.04c-5.646 9.778-5.646 21.454 0 31.232 5.646 9.779 15.757 15.617 27.048 15.617h200.964c11.292 0 21.403-5.838 27.048-15.617 5.646-9.778 5.646-21.454 0-31.232zm-12.99 23.733c-2.934 5.082-8.189 8.116-14.058 8.116h-200.964c-5.869 0-11.124-3.034-14.058-8.116-2.934-5.083-2.934-11.151 0-16.233l100.482-174.04c2.934-5.082 8.189-8.116 14.058-8.116s11.124 3.034 14.058 8.116l100.482 174.04c2.934 5.082 2.934 11.15 0 16.233z"/><path d="m380.05 329.793c-4.142 0-7.5 3.358-7.5 7.5v96.194c0 4.142 3.358 7.5 7.5 7.5s7.5-3.358 7.5-7.5v-96.194c0-4.142-3.358-7.5-7.5-7.5z"/><path d="m246.235 231.443h130.007c4.142 0 7.5-3.358 7.5-7.5s-3.358-7.5-7.5-7.5h-130.007c-3.139-9.308-11.946-16.032-22.3-16.032-3.757 0-7.309.89-10.463 2.463l-88.444-88.444c-2.929-2.929-7.678-2.929-10.606 0-2.929 2.929-2.929 7.678 0 10.606l88.444 88.444c-1.573 3.154-2.463 6.706-2.463 10.463 0 12.976 10.557 23.532 23.532 23.532 10.354 0 19.161-6.724 22.3-16.032zm-22.299 1.032c-4.705 0-8.532-3.828-8.532-8.532s3.828-8.532 8.532-8.532 8.532 3.828 8.532 8.532-3.828 8.532-8.532 8.532z"/><path d="m95.161 223.943c0-4.142-3.358-7.5-7.5-7.5h-16.032c-4.142 0-7.5 3.358-7.5 7.5s3.358 7.5 7.5 7.5h16.032c4.142 0 7.5-3.358 7.5-7.5z"/><path d="m231.436 87.668v-16.032c0-4.142-3.358-7.5-7.5-7.5s-7.5 3.358-7.5 7.5v16.032c0 4.142 3.358 7.5 7.5 7.5s7.5-3.358 7.5-7.5z"/><path d="m216.436 360.217v16.032c0 4.142 3.358 7.5 7.5 7.5s7.5-3.358 7.5-7.5v-16.032c0-4.142-3.358-7.5-7.5-7.5s-7.5 3.358-7.5 7.5z"/><path d="m145.295 345.152-4.008 6.942c-2.071 3.587-.842 8.174 2.745 10.245 1.181.682 2.471 1.006 3.743 1.006 2.592 0 5.113-1.345 6.502-3.751l4.008-6.942c2.071-3.587.842-8.174-2.745-10.245-3.586-2.073-8.174-.843-10.245 2.745z"/><path d="m296.074 106.485c2.592 0 5.113-1.345 6.502-3.751l4.008-6.942c2.071-3.587.842-8.174-2.745-10.245-3.587-2.072-8.174-.843-10.245 2.745l-4.008 6.942c-2.071 3.587-.842 8.174 2.745 10.245 1.181.682 2.47 1.006 3.743 1.006z"/><path d="m102.727 145.303-6.942-4.008c-3.587-2.072-8.174-.843-10.245 2.745-2.071 3.587-.842 8.174 2.745 10.245l6.942 4.008c1.181.682 2.471 1.006 3.743 1.006 2.592 0 5.113-1.345 6.502-3.751 2.071-3.587.842-8.174-2.745-10.245z"/><path d="m151.797 106.485c1.272 0 2.562-.324 3.743-1.006 3.587-2.071 4.816-6.658 2.745-10.245l-4.008-6.942c-2.071-3.588-6.659-4.817-10.245-2.745-3.587 2.071-4.816 6.658-2.745 10.245l4.008 6.942c1.39 2.406 3.911 3.751 6.502 3.751z"/><path d="m348.901 159.299c1.272 0 2.562-.324 3.743-1.006l6.942-4.008c3.587-2.071 4.816-6.658 2.745-10.245s-6.659-4.816-10.245-2.745l-6.942 4.008c-3.587 2.071-4.816 6.658-2.745 10.245 1.39 2.406 3.911 3.751 6.502 3.751z"/><path d="m92.041 307.598c1.272 0 2.562-.324 3.743-1.006l6.942-4.008c3.587-2.071 4.816-6.658 2.745-10.245-2.071-3.588-6.66-4.817-10.245-2.745l-6.942 4.008c-3.587 2.071-4.816 6.658-2.745 10.245 1.389 2.405 3.91 3.751 6.502 3.751z"/><circle cx="380.05" cy="465.547" r="7.5"/></g></svg>